<mxfile host="Electron" agent="Mozilla/5.0 (Windows NT 10.0; Win64; x64) AppleWebKit/537.36 (KHTML, like Gecko) draw.io/24.7.8 Chrome/128.0.6613.36 Electron/32.0.1 Safari/537.36" version="24.7.8">
  <diagram id="C5RBs43oDa-KdzZeNtuy" name="Page-1">
    <mxGraphModel dx="4389" dy="2233" grid="1" gridSize="10" guides="1" tooltips="1" connect="1" arrows="1" fold="1" page="1" pageScale="1" pageWidth="827" pageHeight="1169" math="0" shadow="0">
      <root>
        <mxCell id="WIyWlLk6GJQsqaUBKTNV-0" />
        <mxCell id="WIyWlLk6GJQsqaUBKTNV-1" parent="WIyWlLk6GJQsqaUBKTNV-0" />
        <mxCell id="QMsvHpXPwVjZWoKo-MYo-491" value="&lt;p style=&quot;margin:0px;margin-top:4px;text-align:center;&quot;&gt;&lt;b&gt;Customer&lt;/b&gt;&lt;/p&gt;&lt;hr size=&quot;1&quot; style=&quot;border-style:solid;&quot;&gt;&lt;p style=&quot;margin:0px;margin-left:4px;&quot;&gt;+ Date of Birth&lt;/p&gt;&lt;p style=&quot;margin:0px;margin-left:4px;&quot;&gt;+ Name&lt;/p&gt;&lt;p style=&quot;margin:0px;margin-left:4px;&quot;&gt;&lt;br&gt;&lt;/p&gt;&lt;p style=&quot;margin:0px;margin-left:4px;&quot;&gt;&lt;br&gt;&lt;/p&gt;&lt;p style=&quot;margin:0px;margin-left:4px;&quot;&gt;&lt;br&gt;&lt;/p&gt;&lt;hr size=&quot;1&quot; style=&quot;border-style:solid;&quot;&gt;&lt;p style=&quot;margin:0px;margin-left:4px;&quot;&gt;&lt;br&gt;&lt;/p&gt;" style="verticalAlign=top;align=left;overflow=fill;html=1;whiteSpace=wrap;fillColor=#dae8fc;rounded=1;strokeColor=#6c8ebf;gradientColor=#7ea6e0;" parent="WIyWlLk6GJQsqaUBKTNV-1" vertex="1">
          <mxGeometry x="-1440" y="260" width="160" height="60" as="geometry" />
        </mxCell>
        <mxCell id="QMsvHpXPwVjZWoKo-MYo-493" style="edgeStyle=orthogonalEdgeStyle;rounded=1;orthogonalLoop=1;jettySize=auto;html=1;exitX=0.5;exitY=1;exitDx=0;exitDy=0;" parent="WIyWlLk6GJQsqaUBKTNV-1" source="QMsvHpXPwVjZWoKo-MYo-491" target="QMsvHpXPwVjZWoKo-MYo-491" edge="1">
          <mxGeometry relative="1" as="geometry" />
        </mxCell>
        <mxCell id="QMsvHpXPwVjZWoKo-MYo-494" value="&lt;p style=&quot;margin:0px;margin-top:4px;text-align:center;&quot;&gt;&lt;b&gt;Ticket&lt;/b&gt;&lt;/p&gt;&lt;hr size=&quot;1&quot; style=&quot;border-style:solid;&quot;&gt;&lt;p style=&quot;margin:0px;margin-left:4px;&quot;&gt;+ Ticketing Code&lt;/p&gt;&lt;p style=&quot;margin:0px;margin-left:4px;&quot;&gt;+ Number&lt;/p&gt;&lt;hr size=&quot;1&quot; style=&quot;border-style:solid;&quot;&gt;&lt;p style=&quot;margin:0px;margin-left:4px;&quot;&gt;&lt;br&gt;&lt;/p&gt;" style="verticalAlign=top;align=left;overflow=fill;html=1;whiteSpace=wrap;fillColor=#dae8fc;rounded=1;gradientColor=#7ea6e0;strokeColor=#6c8ebf;" parent="WIyWlLk6GJQsqaUBKTNV-1" vertex="1">
          <mxGeometry x="-1440" y="420" width="160" height="60" as="geometry" />
        </mxCell>
        <mxCell id="QMsvHpXPwVjZWoKo-MYo-495" value="&lt;p style=&quot;margin:0px;margin-top:4px;text-align:center;&quot;&gt;&lt;b&gt;Coupon&lt;/b&gt;&lt;/p&gt;&lt;hr size=&quot;1&quot; style=&quot;border-style:solid;&quot;&gt;&lt;p style=&quot;margin:0px;margin-left:4px;&quot;&gt;+ Date of Redemption&lt;/p&gt;&lt;p style=&quot;margin:0px;margin-left:4px;&quot;&gt;+ Class&lt;/p&gt;&lt;p style=&quot;margin:0px;margin-left:4px;&quot;&gt;+ Standby&lt;/p&gt;&lt;p style=&quot;margin:0px;margin-left:4px;&quot;&gt;+ Meal Code&lt;/p&gt;&lt;hr size=&quot;1&quot; style=&quot;border-style:solid;&quot;&gt;&lt;p style=&quot;margin:0px;margin-left:4px;&quot;&gt;&lt;br&gt;&lt;/p&gt;" style="verticalAlign=top;align=left;overflow=fill;html=1;whiteSpace=wrap;fillColor=#dae8fc;rounded=1;gradientColor=#7ea6e0;strokeColor=#6c8ebf;" parent="WIyWlLk6GJQsqaUBKTNV-1" vertex="1">
          <mxGeometry x="-1440" y="595" width="160" height="90" as="geometry" />
        </mxCell>
        <mxCell id="QMsvHpXPwVjZWoKo-MYo-496" value="&lt;p style=&quot;margin:0px;margin-top:4px;text-align:center;&quot;&gt;&lt;b&gt;Pieces of Luggage&lt;/b&gt;&lt;/p&gt;&lt;hr size=&quot;1&quot; style=&quot;border-style:solid;&quot;&gt;&lt;p style=&quot;margin:0px;margin-left:4px;&quot;&gt;+ Number&lt;/p&gt;&lt;p style=&quot;margin:0px;margin-left:4px;&quot;&gt;+ Weight&lt;/p&gt;&lt;hr size=&quot;1&quot; style=&quot;border-style:solid;&quot;&gt;&lt;p style=&quot;margin:0px;margin-left:4px;&quot;&gt;&lt;br&gt;&lt;/p&gt;" style="verticalAlign=top;align=left;overflow=fill;html=1;whiteSpace=wrap;fillColor=#dae8fc;rounded=1;gradientColor=#7ea6e0;strokeColor=#6c8ebf;" parent="WIyWlLk6GJQsqaUBKTNV-1" vertex="1">
          <mxGeometry x="-1440" y="746" width="160" height="60" as="geometry" />
        </mxCell>
        <mxCell id="QMsvHpXPwVjZWoKo-MYo-507" value="" style="endArrow=diamondThin;endFill=0;endSize=24;html=1;rounded=1;entryX=0.5;entryY=1;entryDx=0;entryDy=0;exitX=0.5;exitY=0;exitDx=0;exitDy=0;" parent="WIyWlLk6GJQsqaUBKTNV-1" source="QMsvHpXPwVjZWoKo-MYo-495" target="QMsvHpXPwVjZWoKo-MYo-494" edge="1">
          <mxGeometry width="160" relative="1" as="geometry">
            <mxPoint x="-1360" y="560" as="sourcePoint" />
            <mxPoint x="-1200" y="560" as="targetPoint" />
          </mxGeometry>
        </mxCell>
        <mxCell id="QMsvHpXPwVjZWoKo-MYo-508" value="1" style="text;html=1;align=center;verticalAlign=middle;resizable=0;points=[];autosize=1;strokeColor=none;fillColor=none;rounded=1;" parent="WIyWlLk6GJQsqaUBKTNV-1" vertex="1">
          <mxGeometry x="-1390" y="500" width="30" height="30" as="geometry" />
        </mxCell>
        <mxCell id="QMsvHpXPwVjZWoKo-MYo-509" value="1..4" style="text;html=1;align=center;verticalAlign=middle;resizable=0;points=[];autosize=1;strokeColor=none;fillColor=none;rounded=1;" parent="WIyWlLk6GJQsqaUBKTNV-1" vertex="1">
          <mxGeometry x="-1395" y="610" width="40" height="30" as="geometry" />
        </mxCell>
        <mxCell id="QMsvHpXPwVjZWoKo-MYo-513" value="" style="endArrow=none;html=1;edgeStyle=orthogonalEdgeStyle;rounded=1;entryX=0.5;entryY=0;entryDx=0;entryDy=0;exitX=0.5;exitY=1;exitDx=0;exitDy=0;" parent="WIyWlLk6GJQsqaUBKTNV-1" source="QMsvHpXPwVjZWoKo-MYo-495" target="QMsvHpXPwVjZWoKo-MYo-496" edge="1">
          <mxGeometry relative="1" as="geometry">
            <mxPoint x="-1370" y="760" as="sourcePoint" />
            <mxPoint x="-1210" y="760" as="targetPoint" />
          </mxGeometry>
        </mxCell>
        <mxCell id="QMsvHpXPwVjZWoKo-MYo-516" value="" style="endArrow=none;html=1;edgeStyle=orthogonalEdgeStyle;rounded=1;entryX=0.5;entryY=1;entryDx=0;entryDy=0;exitX=0.75;exitY=0;exitDx=0;exitDy=0;" parent="WIyWlLk6GJQsqaUBKTNV-1" source="IgqxZhTUIi47PmuO_gBq-23" target="QMsvHpXPwVjZWoKo-MYo-491" edge="1">
          <mxGeometry relative="1" as="geometry">
            <mxPoint x="-1570" y="350" as="sourcePoint" />
            <mxPoint x="-1195" y="390" as="targetPoint" />
          </mxGeometry>
        </mxCell>
        <mxCell id="QMsvHpXPwVjZWoKo-MYo-518" value="1" style="edgeLabel;resizable=0;html=1;align=right;verticalAlign=bottom;rounded=1;" parent="QMsvHpXPwVjZWoKo-MYo-516" connectable="0" vertex="1">
          <mxGeometry x="1" relative="1" as="geometry">
            <mxPoint x="-10" y="20" as="offset" />
          </mxGeometry>
        </mxCell>
        <mxCell id="QMsvHpXPwVjZWoKo-MYo-519" value="*" style="text;html=1;align=center;verticalAlign=middle;resizable=0;points=[];autosize=1;strokeColor=none;fillColor=none;rounded=1;" parent="WIyWlLk6GJQsqaUBKTNV-1" vertex="1">
          <mxGeometry x="-1580" y="341.13" width="30" height="30" as="geometry" />
        </mxCell>
        <mxCell id="QMsvHpXPwVjZWoKo-MYo-520" value="" style="endArrow=none;html=1;edgeStyle=orthogonalEdgeStyle;rounded=1;exitX=0.5;exitY=0;exitDx=0;exitDy=0;entryX=0.5;entryY=1;entryDx=0;entryDy=0;" parent="WIyWlLk6GJQsqaUBKTNV-1" source="QMsvHpXPwVjZWoKo-MYo-491" target="QMsvHpXPwVjZWoKo-MYo-486" edge="1">
          <mxGeometry relative="1" as="geometry">
            <mxPoint x="-1320" y="250" as="sourcePoint" />
            <mxPoint x="-1160" y="250" as="targetPoint" />
          </mxGeometry>
        </mxCell>
        <mxCell id="QMsvHpXPwVjZWoKo-MYo-521" value="1" style="edgeLabel;resizable=0;html=1;align=left;verticalAlign=bottom;rounded=1;" parent="QMsvHpXPwVjZWoKo-MYo-520" connectable="0" vertex="1">
          <mxGeometry x="-1" relative="1" as="geometry">
            <mxPoint x="-20" as="offset" />
          </mxGeometry>
        </mxCell>
        <mxCell id="QMsvHpXPwVjZWoKo-MYo-522" value="0..1" style="edgeLabel;resizable=0;html=1;align=right;verticalAlign=bottom;rounded=1;" parent="QMsvHpXPwVjZWoKo-MYo-520" connectable="0" vertex="1">
          <mxGeometry x="1" relative="1" as="geometry">
            <mxPoint x="-10" y="20" as="offset" />
          </mxGeometry>
        </mxCell>
        <mxCell id="QMsvHpXPwVjZWoKo-MYo-523" value="1" style="text;html=1;align=center;verticalAlign=middle;resizable=0;points=[];autosize=1;strokeColor=none;fillColor=none;rounded=1;" parent="WIyWlLk6GJQsqaUBKTNV-1" vertex="1">
          <mxGeometry x="-1385" y="685" width="30" height="30" as="geometry" />
        </mxCell>
        <mxCell id="QMsvHpXPwVjZWoKo-MYo-524" value="*" style="text;html=1;align=center;verticalAlign=middle;resizable=0;points=[];autosize=1;strokeColor=none;fillColor=none;rounded=1;" parent="WIyWlLk6GJQsqaUBKTNV-1" vertex="1">
          <mxGeometry x="-1385" y="726" width="30" height="30" as="geometry" />
        </mxCell>
        <mxCell id="QMsvHpXPwVjZWoKo-MYo-525" value="&lt;p style=&quot;margin:0px;margin-top:4px;text-align:center;&quot;&gt;&lt;b&gt;Airport&lt;/b&gt;&lt;/p&gt;&lt;hr size=&quot;1&quot; style=&quot;border-style:solid;&quot;&gt;&lt;p style=&quot;margin:0px;margin-left:4px;&quot;&gt;+ Name&lt;/p&gt;&lt;hr size=&quot;1&quot; style=&quot;border-style:solid;&quot;&gt;&lt;p style=&quot;margin:0px;margin-left:4px;&quot;&gt;&lt;br&gt;&lt;/p&gt;" style="verticalAlign=top;align=left;overflow=fill;html=1;whiteSpace=wrap;fillColor=#dae8fc;rounded=1;gradientColor=#7ea6e0;strokeColor=#6c8ebf;" parent="WIyWlLk6GJQsqaUBKTNV-1" vertex="1">
          <mxGeometry x="-966" y="100" width="160" height="50" as="geometry" />
        </mxCell>
        <mxCell id="QMsvHpXPwVjZWoKo-MYo-526" value="&lt;p style=&quot;margin:0px;margin-top:4px;text-align:center;&quot;&gt;&lt;b&gt;Flight Number&lt;/b&gt;&lt;/p&gt;&lt;hr size=&quot;1&quot; style=&quot;border-style:solid;&quot;&gt;&lt;p style=&quot;margin:0px;margin-left:4px;&quot;&gt;+ Departure Time&lt;/p&gt;&lt;p style=&quot;margin:0px;margin-left:4px;&quot;&gt;+ Description&lt;/p&gt;&lt;p style=&quot;margin:0px;margin-left:4px;&quot;&gt;+ Type&amp;nbsp;&lt;/p&gt;&lt;p style=&quot;margin:0px;margin-left:4px;&quot;&gt;+ Airline&lt;/p&gt;&lt;hr size=&quot;1&quot; style=&quot;border-style:solid;&quot;&gt;&lt;p style=&quot;margin:0px;margin-left:4px;&quot;&gt;&lt;br&gt;&lt;/p&gt;" style="verticalAlign=top;align=left;overflow=fill;html=1;whiteSpace=wrap;fillColor=#dae8fc;rounded=1;gradientColor=#7ea6e0;strokeColor=#6c8ebf;" parent="WIyWlLk6GJQsqaUBKTNV-1" vertex="1">
          <mxGeometry x="-973" y="290" width="160" height="90" as="geometry" />
        </mxCell>
        <mxCell id="QMsvHpXPwVjZWoKo-MYo-527" value="&lt;p style=&quot;margin:0px;margin-top:4px;text-align:center;&quot;&gt;&lt;b&gt;Flight&lt;/b&gt;&lt;/p&gt;&lt;hr size=&quot;1&quot; style=&quot;border-style:solid;&quot;&gt;&lt;p style=&quot;margin:0px;margin-left:4px;&quot;&gt;+ Boarding Time&lt;/p&gt;&lt;p style=&quot;margin:0px;margin-left:4px;&quot;&gt;+ Flight Date&lt;/p&gt;&lt;p style=&quot;margin:0px;margin-left:4px;&quot;&gt;+ Gate&amp;nbsp;&lt;/p&gt;&lt;p style=&quot;margin:0px;margin-left:4px;&quot;&gt;+ Check-in Counter&lt;/p&gt;&lt;hr size=&quot;1&quot; style=&quot;border-style:solid;&quot;&gt;&lt;p style=&quot;margin:0px;margin-left:4px;&quot;&gt;&lt;br&gt;&lt;/p&gt;" style="verticalAlign=top;align=left;overflow=fill;html=1;whiteSpace=wrap;fillColor=#dae8fc;rounded=1;gradientColor=#7ea6e0;strokeColor=#6c8ebf;" parent="WIyWlLk6GJQsqaUBKTNV-1" vertex="1">
          <mxGeometry x="-973" y="480" width="160" height="90" as="geometry" />
        </mxCell>
        <mxCell id="QMsvHpXPwVjZWoKo-MYo-532" value="&lt;p style=&quot;margin:0px;margin-top:4px;text-align:center;&quot;&gt;&lt;b&gt;Available Seat&lt;/b&gt;&lt;/p&gt;&lt;hr size=&quot;1&quot; style=&quot;border-style:solid;&quot;&gt;&lt;p style=&quot;margin:0px;margin-left:4px;&quot;&gt;+ id&lt;/p&gt;&lt;hr size=&quot;1&quot; style=&quot;border-style:solid;&quot;&gt;&lt;p style=&quot;margin:0px;margin-left:4px;&quot;&gt;&lt;br&gt;&lt;/p&gt;" style="verticalAlign=top;align=left;overflow=fill;html=1;whiteSpace=wrap;fillColor=#dae8fc;rounded=1;gradientColor=#7ea6e0;strokeColor=#6c8ebf;" parent="WIyWlLk6GJQsqaUBKTNV-1" vertex="1">
          <mxGeometry x="-973" y="643" width="160" height="62" as="geometry" />
        </mxCell>
        <mxCell id="QMsvHpXPwVjZWoKo-MYo-537" value="" style="endArrow=none;html=1;edgeStyle=orthogonalEdgeStyle;rounded=1;exitX=0.5;exitY=1;exitDx=0;exitDy=0;entryX=0.5;entryY=0;entryDx=0;entryDy=0;" parent="WIyWlLk6GJQsqaUBKTNV-1" source="QMsvHpXPwVjZWoKo-MYo-526" target="QMsvHpXPwVjZWoKo-MYo-527" edge="1">
          <mxGeometry relative="1" as="geometry">
            <mxPoint x="-1093" y="500" as="sourcePoint" />
            <mxPoint x="-933" y="500" as="targetPoint" />
          </mxGeometry>
        </mxCell>
        <mxCell id="QMsvHpXPwVjZWoKo-MYo-541" value="" style="endArrow=none;html=1;edgeStyle=orthogonalEdgeStyle;rounded=1;exitX=1.011;exitY=0.374;exitDx=0;exitDy=0;exitPerimeter=0;entryX=0.146;entryY=1.036;entryDx=0;entryDy=0;entryPerimeter=0;" parent="WIyWlLk6GJQsqaUBKTNV-1" source="QMsvHpXPwVjZWoKo-MYo-495" target="QMsvHpXPwVjZWoKo-MYo-527" edge="1">
          <mxGeometry relative="1" as="geometry">
            <mxPoint x="-960" y="550" as="sourcePoint" />
            <mxPoint x="-800" y="550" as="targetPoint" />
          </mxGeometry>
        </mxCell>
        <mxCell id="QMsvHpXPwVjZWoKo-MYo-550" value="" style="endArrow=none;html=1;edgeStyle=orthogonalEdgeStyle;rounded=1;exitX=0.5;exitY=1;exitDx=0;exitDy=0;entryX=0.5;entryY=0;entryDx=0;entryDy=0;" parent="WIyWlLk6GJQsqaUBKTNV-1" source="QMsvHpXPwVjZWoKo-MYo-527" target="QMsvHpXPwVjZWoKo-MYo-532" edge="1">
          <mxGeometry relative="1" as="geometry">
            <mxPoint x="-960" y="550" as="sourcePoint" />
            <mxPoint x="-800" y="550" as="targetPoint" />
          </mxGeometry>
        </mxCell>
        <mxCell id="QMsvHpXPwVjZWoKo-MYo-553" value="1" style="text;html=1;align=center;verticalAlign=middle;resizable=0;points=[];autosize=1;strokeColor=none;fillColor=none;rounded=1;" parent="WIyWlLk6GJQsqaUBKTNV-1" vertex="1">
          <mxGeometry x="-963" y="190" width="30" height="30" as="geometry" />
        </mxCell>
        <mxCell id="QMsvHpXPwVjZWoKo-MYo-554" value="1..*" style="text;html=1;align=center;verticalAlign=middle;resizable=0;points=[];autosize=1;strokeColor=none;fillColor=none;rounded=1;" parent="WIyWlLk6GJQsqaUBKTNV-1" vertex="1">
          <mxGeometry x="-968" y="260" width="40" height="30" as="geometry" />
        </mxCell>
        <mxCell id="QMsvHpXPwVjZWoKo-MYo-555" value="1" style="text;html=1;align=center;verticalAlign=middle;resizable=0;points=[];autosize=1;strokeColor=none;fillColor=none;rounded=1;" parent="WIyWlLk6GJQsqaUBKTNV-1" vertex="1">
          <mxGeometry x="-868" y="150" width="30" height="30" as="geometry" />
        </mxCell>
        <mxCell id="QMsvHpXPwVjZWoKo-MYo-556" value="1..*" style="text;html=1;align=center;verticalAlign=middle;resizable=0;points=[];autosize=1;strokeColor=none;fillColor=none;rounded=1;" parent="WIyWlLk6GJQsqaUBKTNV-1" vertex="1">
          <mxGeometry x="-873" y="268" width="40" height="30" as="geometry" />
        </mxCell>
        <mxCell id="QMsvHpXPwVjZWoKo-MYo-557" value="1" style="text;html=1;align=center;verticalAlign=middle;resizable=0;points=[];autosize=1;strokeColor=none;fillColor=none;rounded=1;" parent="WIyWlLk6GJQsqaUBKTNV-1" vertex="1">
          <mxGeometry x="-925" y="378" width="30" height="30" as="geometry" />
        </mxCell>
        <mxCell id="QMsvHpXPwVjZWoKo-MYo-558" value="*" style="text;html=1;align=center;verticalAlign=middle;resizable=0;points=[];autosize=1;strokeColor=none;fillColor=none;rounded=1;" parent="WIyWlLk6GJQsqaUBKTNV-1" vertex="1">
          <mxGeometry x="-925" y="448" width="30" height="30" as="geometry" />
        </mxCell>
        <mxCell id="QMsvHpXPwVjZWoKo-MYo-559" value="1" style="text;html=1;align=center;verticalAlign=middle;resizable=0;points=[];autosize=1;strokeColor=none;fillColor=none;rounded=1;" parent="WIyWlLk6GJQsqaUBKTNV-1" vertex="1">
          <mxGeometry x="-980" y="570" width="30" height="30" as="geometry" />
        </mxCell>
        <mxCell id="QMsvHpXPwVjZWoKo-MYo-560" value="*" style="text;html=1;align=center;verticalAlign=middle;resizable=0;points=[];autosize=1;strokeColor=none;fillColor=none;rounded=1;" parent="WIyWlLk6GJQsqaUBKTNV-1" vertex="1">
          <mxGeometry x="-1280" y="605" width="30" height="30" as="geometry" />
        </mxCell>
        <mxCell id="QMsvHpXPwVjZWoKo-MYo-562" value="0..1" style="text;html=1;align=center;verticalAlign=middle;resizable=0;points=[];autosize=1;strokeColor=none;fillColor=none;rounded=1;" parent="WIyWlLk6GJQsqaUBKTNV-1" vertex="1">
          <mxGeometry x="-1285" y="663" width="40" height="30" as="geometry" />
        </mxCell>
        <mxCell id="QMsvHpXPwVjZWoKo-MYo-563" value="0..1" style="text;html=1;align=center;verticalAlign=middle;resizable=0;points=[];autosize=1;strokeColor=none;fillColor=none;rounded=1;" parent="WIyWlLk6GJQsqaUBKTNV-1" vertex="1">
          <mxGeometry x="-1008" y="663" width="40" height="30" as="geometry" />
        </mxCell>
        <mxCell id="QMsvHpXPwVjZWoKo-MYo-564" value="1" style="text;html=1;align=center;verticalAlign=middle;resizable=0;points=[];autosize=1;strokeColor=none;fillColor=none;rounded=1;" parent="WIyWlLk6GJQsqaUBKTNV-1" vertex="1">
          <mxGeometry x="-925" y="568" width="30" height="30" as="geometry" />
        </mxCell>
        <mxCell id="QMsvHpXPwVjZWoKo-MYo-565" value="*" style="text;html=1;align=center;verticalAlign=middle;resizable=0;points=[];autosize=1;strokeColor=none;fillColor=none;rounded=1;" parent="WIyWlLk6GJQsqaUBKTNV-1" vertex="1">
          <mxGeometry x="-920" y="621" width="30" height="30" as="geometry" />
        </mxCell>
        <mxCell id="QMsvHpXPwVjZWoKo-MYo-566" value="&lt;p style=&quot;margin:0px;margin-top:4px;text-align:center;&quot;&gt;&lt;b&gt;Airplane&lt;/b&gt;&lt;/p&gt;&lt;hr size=&quot;1&quot; style=&quot;border-style:solid;&quot;&gt;&lt;p style=&quot;margin:0px;margin-left:4px;&quot;&gt;+ Registration Number&lt;/p&gt;&lt;p style=&quot;margin:0px;margin-left:4px;&quot;&gt;+ Begin of Operation&amp;nbsp;&lt;/p&gt;&lt;p style=&quot;margin:0px;margin-left:4px;&quot;&gt;+ Status&lt;/p&gt;&lt;hr size=&quot;1&quot; style=&quot;border-style:solid;&quot;&gt;&lt;p style=&quot;margin:0px;margin-left:4px;&quot;&gt;&lt;br&gt;&lt;/p&gt;" style="verticalAlign=top;align=left;overflow=fill;html=1;whiteSpace=wrap;fillColor=#dae8fc;rounded=1;gradientColor=#7ea6e0;strokeColor=#6c8ebf;" parent="WIyWlLk6GJQsqaUBKTNV-1" vertex="1">
          <mxGeometry x="-731.5" y="148" width="160" height="80" as="geometry" />
        </mxCell>
        <mxCell id="QMsvHpXPwVjZWoKo-MYo-567" value="&lt;p style=&quot;margin:0px;margin-top:4px;text-align:center;&quot;&gt;&lt;b&gt;Plane Model&lt;/b&gt;&lt;/p&gt;&lt;hr size=&quot;1&quot; style=&quot;border-style:solid;&quot;&gt;&lt;p style=&quot;margin:0px;margin-left:4px;&quot;&gt;+ Description&lt;/p&gt;&lt;p style=&quot;margin:0px;margin-left:4px;&quot;&gt;+ Graphic&lt;/p&gt;&lt;hr size=&quot;1&quot; style=&quot;border-style:solid;&quot;&gt;&lt;p style=&quot;margin:0px;margin-left:4px;&quot;&gt;&lt;br&gt;&lt;/p&gt;" style="verticalAlign=top;align=left;overflow=fill;html=1;whiteSpace=wrap;fillColor=#dae8fc;rounded=1;gradientColor=#7ea6e0;strokeColor=#6c8ebf;" parent="WIyWlLk6GJQsqaUBKTNV-1" vertex="1">
          <mxGeometry x="-731.5" y="274.75" width="160" height="65" as="geometry" />
        </mxCell>
        <mxCell id="QMsvHpXPwVjZWoKo-MYo-568" value="&lt;p style=&quot;margin:0px;margin-top:4px;text-align:center;&quot;&gt;&lt;b&gt;Seat&lt;/b&gt;&lt;/p&gt;&lt;hr size=&quot;1&quot; style=&quot;border-style:solid;&quot;&gt;&lt;p style=&quot;margin:0px;margin-left:4px;&quot;&gt;+ Size&lt;/p&gt;&lt;p style=&quot;margin:0px;margin-left:4px;&quot;&gt;+ Number&amp;nbsp;&lt;/p&gt;&lt;p style=&quot;margin:0px;margin-left:4px;&quot;&gt;+ Location&lt;/p&gt;&lt;hr size=&quot;1&quot; style=&quot;border-style:solid;&quot;&gt;&lt;p style=&quot;margin:0px;margin-left:4px;&quot;&gt;&lt;br&gt;&lt;/p&gt;" style="verticalAlign=top;align=left;overflow=fill;html=1;whiteSpace=wrap;fillColor=#dae8fc;rounded=1;gradientColor=#7ea6e0;strokeColor=#6c8ebf;" parent="WIyWlLk6GJQsqaUBKTNV-1" vertex="1">
          <mxGeometry x="-731.5" y="400" width="160" height="78" as="geometry" />
        </mxCell>
        <mxCell id="QMsvHpXPwVjZWoKo-MYo-571" value="" style="endArrow=none;html=1;edgeStyle=orthogonalEdgeStyle;rounded=1;exitX=0.5;exitY=0;exitDx=0;exitDy=0;entryX=0.5;entryY=1;entryDx=0;entryDy=0;" parent="WIyWlLk6GJQsqaUBKTNV-1" source="QMsvHpXPwVjZWoKo-MYo-567" target="QMsvHpXPwVjZWoKo-MYo-566" edge="1">
          <mxGeometry relative="1" as="geometry">
            <mxPoint x="-792.5" y="320" as="sourcePoint" />
            <mxPoint x="-632.5" y="320" as="targetPoint" />
          </mxGeometry>
        </mxCell>
        <mxCell id="QMsvHpXPwVjZWoKo-MYo-574" value="" style="endArrow=diamondThin;endFill=0;endSize=24;html=1;rounded=1;entryX=0.5;entryY=1;entryDx=0;entryDy=0;exitX=0.5;exitY=0;exitDx=0;exitDy=0;" parent="WIyWlLk6GJQsqaUBKTNV-1" source="QMsvHpXPwVjZWoKo-MYo-568" target="QMsvHpXPwVjZWoKo-MYo-567" edge="1">
          <mxGeometry width="160" relative="1" as="geometry">
            <mxPoint x="-765.5" y="442" as="sourcePoint" />
            <mxPoint x="-605.5" y="442" as="targetPoint" />
          </mxGeometry>
        </mxCell>
        <mxCell id="QMsvHpXPwVjZWoKo-MYo-575" value="" style="endArrow=none;html=1;edgeStyle=orthogonalEdgeStyle;rounded=1;exitX=0.75;exitY=0;exitDx=0;exitDy=0;" parent="WIyWlLk6GJQsqaUBKTNV-1" source="QMsvHpXPwVjZWoKo-MYo-532" edge="1">
          <mxGeometry relative="1" as="geometry">
            <mxPoint x="-744" y="734" as="sourcePoint" />
            <mxPoint x="-660" y="480" as="targetPoint" />
            <Array as="points">
              <mxPoint x="-853" y="610" />
              <mxPoint x="-662" y="610" />
              <mxPoint x="-662" y="480" />
            </Array>
          </mxGeometry>
        </mxCell>
        <mxCell id="QMsvHpXPwVjZWoKo-MYo-578" value="" style="endArrow=none;html=1;edgeStyle=orthogonalEdgeStyle;rounded=1;exitX=1;exitY=0.5;exitDx=0;exitDy=0;entryX=0.007;entryY=0.594;entryDx=0;entryDy=0;entryPerimeter=0;" parent="WIyWlLk6GJQsqaUBKTNV-1" source="QMsvHpXPwVjZWoKo-MYo-526" target="QMsvHpXPwVjZWoKo-MYo-567" edge="1">
          <mxGeometry relative="1" as="geometry">
            <mxPoint x="-744" y="530" as="sourcePoint" />
            <mxPoint x="-584" y="530" as="targetPoint" />
          </mxGeometry>
        </mxCell>
        <mxCell id="QMsvHpXPwVjZWoKo-MYo-581" value="*..0" style="text;html=1;align=center;verticalAlign=middle;resizable=0;points=[];autosize=1;strokeColor=none;fillColor=none;rounded=1;" parent="WIyWlLk6GJQsqaUBKTNV-1" vertex="1">
          <mxGeometry x="-815" y="309" width="36" height="26" as="geometry" />
        </mxCell>
        <mxCell id="QMsvHpXPwVjZWoKo-MYo-582" value="1" style="text;html=1;align=center;verticalAlign=middle;resizable=0;points=[];autosize=1;strokeColor=none;fillColor=none;rounded=1;" parent="WIyWlLk6GJQsqaUBKTNV-1" vertex="1">
          <mxGeometry x="-776" y="293" width="25" height="26" as="geometry" />
        </mxCell>
        <mxCell id="QMsvHpXPwVjZWoKo-MYo-583" value="*" style="text;html=1;align=center;verticalAlign=middle;resizable=0;points=[];autosize=1;strokeColor=none;fillColor=none;rounded=1;" parent="WIyWlLk6GJQsqaUBKTNV-1" vertex="1">
          <mxGeometry x="-676.5" y="228" width="23" height="26" as="geometry" />
        </mxCell>
        <mxCell id="QMsvHpXPwVjZWoKo-MYo-585" value="1" style="text;html=1;align=center;verticalAlign=middle;resizable=0;points=[];autosize=1;strokeColor=none;fillColor=none;rounded=1;" parent="WIyWlLk6GJQsqaUBKTNV-1" vertex="1">
          <mxGeometry x="-678.5" y="247" width="25" height="26" as="geometry" />
        </mxCell>
        <mxCell id="QMsvHpXPwVjZWoKo-MYo-586" value="1" style="text;html=1;align=center;verticalAlign=middle;resizable=0;points=[];autosize=1;strokeColor=none;fillColor=none;rounded=1;" parent="WIyWlLk6GJQsqaUBKTNV-1" vertex="1">
          <mxGeometry x="-683.5" y="366" width="25" height="26" as="geometry" />
        </mxCell>
        <mxCell id="QMsvHpXPwVjZWoKo-MYo-587" value="*" style="text;html=1;align=center;verticalAlign=middle;resizable=0;points=[];autosize=1;strokeColor=none;fillColor=none;rounded=1;" parent="WIyWlLk6GJQsqaUBKTNV-1" vertex="1">
          <mxGeometry x="-677.5" y="380" width="23" height="26" as="geometry" />
        </mxCell>
        <mxCell id="QMsvHpXPwVjZWoKo-MYo-588" value="1" style="text;html=1;align=center;verticalAlign=middle;resizable=0;points=[];autosize=1;strokeColor=none;fillColor=none;rounded=1;arcSize=50;" parent="WIyWlLk6GJQsqaUBKTNV-1" vertex="1">
          <mxGeometry x="-685" y="478" width="25" height="26" as="geometry" />
        </mxCell>
        <mxCell id="QMsvHpXPwVjZWoKo-MYo-589" value="*" style="text;html=1;align=center;verticalAlign=middle;resizable=0;points=[];autosize=1;strokeColor=none;fillColor=none;rounded=1;arcSize=25;" parent="WIyWlLk6GJQsqaUBKTNV-1" vertex="1">
          <mxGeometry x="-873" y="625" width="23" height="26" as="geometry" />
        </mxCell>
        <mxCell id="bgWBPSLHwiRNU1j04OMt-0" value="&lt;p style=&quot;margin:0px;margin-top:4px;text-align:center;&quot;&gt;&lt;b&gt;Boarding Pass&lt;/b&gt;&lt;/p&gt;&lt;hr size=&quot;1&quot; style=&quot;border-style:solid;&quot;&gt;&lt;p style=&quot;margin:0px;margin-left:4px;&quot;&gt;+ Id&amp;nbsp;&lt;/p&gt;&lt;p style=&quot;margin:0px;margin-left:4px;&quot;&gt;+ Gate&lt;/p&gt;&lt;hr size=&quot;1&quot; style=&quot;border-style:solid;&quot;&gt;&lt;p style=&quot;margin:0px;margin-left:4px;&quot;&gt;&lt;br&gt;&lt;/p&gt;" style="verticalAlign=top;align=left;overflow=fill;html=1;whiteSpace=wrap;fillColor=#f5f5f5;rounded=1;gradientColor=#b3b3b3;strokeColor=#666666;" parent="WIyWlLk6GJQsqaUBKTNV-1" vertex="1">
          <mxGeometry x="-1690" y="605" width="160" height="70" as="geometry" />
        </mxCell>
        <mxCell id="bgWBPSLHwiRNU1j04OMt-1" style="edgeStyle=orthogonalEdgeStyle;rounded=1;orthogonalLoop=1;jettySize=auto;html=1;exitX=0.5;exitY=1;exitDx=0;exitDy=0;" parent="WIyWlLk6GJQsqaUBKTNV-1" source="bgWBPSLHwiRNU1j04OMt-0" target="bgWBPSLHwiRNU1j04OMt-0" edge="1">
          <mxGeometry relative="1" as="geometry" />
        </mxCell>
        <mxCell id="bgWBPSLHwiRNU1j04OMt-2" value="&lt;p style=&quot;margin:0px;margin-top:4px;text-align:center;&quot;&gt;&lt;b&gt;Baggege Check-in&lt;/b&gt;&lt;/p&gt;&lt;hr size=&quot;1&quot; style=&quot;border-style:solid;&quot;&gt;&lt;p style=&quot;margin:0px;margin-left:4px;&quot;&gt;+ Id&lt;/p&gt;&lt;p style=&quot;margin:0px;margin-left:4px;&quot;&gt;+ Prohibited Items&lt;/p&gt;&lt;p style=&quot;margin:0px;margin-left:4px;&quot;&gt;+ Weigth&lt;/p&gt;&lt;hr size=&quot;1&quot; style=&quot;border-style:solid;&quot;&gt;&lt;p style=&quot;margin:0px;margin-left:4px;&quot;&gt;&lt;br&gt;&lt;/p&gt;&lt;p style=&quot;margin:0px;margin-left:4px;&quot;&gt;&lt;br&gt;&lt;/p&gt;" style="verticalAlign=top;align=left;overflow=fill;html=1;whiteSpace=wrap;fillColor=#f5f5f5;rounded=1;gradientColor=#b3b3b3;strokeColor=#666666;" parent="WIyWlLk6GJQsqaUBKTNV-1" vertex="1">
          <mxGeometry x="-1730" y="736" width="160" height="80" as="geometry" />
        </mxCell>
        <mxCell id="IgqxZhTUIi47PmuO_gBq-0" value="" style="endArrow=none;html=1;edgeStyle=orthogonalEdgeStyle;rounded=1;exitX=1;exitY=0.5;exitDx=0;exitDy=0;entryX=0;entryY=0.5;entryDx=0;entryDy=0;" parent="WIyWlLk6GJQsqaUBKTNV-1" source="bgWBPSLHwiRNU1j04OMt-0" target="QMsvHpXPwVjZWoKo-MYo-495" edge="1">
          <mxGeometry relative="1" as="geometry">
            <mxPoint x="-1610" y="745" as="sourcePoint" />
            <mxPoint x="-1450" y="745" as="targetPoint" />
          </mxGeometry>
        </mxCell>
        <mxCell id="IgqxZhTUIi47PmuO_gBq-3" value="" style="endArrow=none;html=1;edgeStyle=orthogonalEdgeStyle;rounded=1;exitX=1.02;exitY=0.587;exitDx=0;exitDy=0;exitPerimeter=0;entryX=-0.013;entryY=0.616;entryDx=0;entryDy=0;entryPerimeter=0;" parent="WIyWlLk6GJQsqaUBKTNV-1" source="bgWBPSLHwiRNU1j04OMt-2" target="QMsvHpXPwVjZWoKo-MYo-496" edge="1">
          <mxGeometry relative="1" as="geometry">
            <mxPoint x="-1610" y="726" as="sourcePoint" />
            <mxPoint x="-1450" y="726" as="targetPoint" />
          </mxGeometry>
        </mxCell>
        <mxCell id="IgqxZhTUIi47PmuO_gBq-6" value="1" style="text;html=1;align=center;verticalAlign=middle;resizable=0;points=[];autosize=1;strokeColor=none;fillColor=none;rounded=1;" parent="WIyWlLk6GJQsqaUBKTNV-1" vertex="1">
          <mxGeometry x="-1570" y="754" width="30" height="30" as="geometry" />
        </mxCell>
        <mxCell id="IgqxZhTUIi47PmuO_gBq-7" value="1" style="text;html=1;align=center;verticalAlign=middle;resizable=0;points=[];autosize=1;strokeColor=none;fillColor=none;rounded=1;" parent="WIyWlLk6GJQsqaUBKTNV-1" vertex="1">
          <mxGeometry x="-1470" y="754" width="30" height="30" as="geometry" />
        </mxCell>
        <mxCell id="IgqxZhTUIi47PmuO_gBq-8" value="*" style="text;html=1;align=center;verticalAlign=middle;resizable=0;points=[];autosize=1;strokeColor=none;fillColor=none;rounded=1;" parent="WIyWlLk6GJQsqaUBKTNV-1" vertex="1">
          <mxGeometry x="-1530" y="613" width="30" height="30" as="geometry" />
        </mxCell>
        <mxCell id="IgqxZhTUIi47PmuO_gBq-9" value="1" style="text;html=1;align=center;verticalAlign=middle;resizable=0;points=[];autosize=1;strokeColor=none;fillColor=none;rounded=1;" parent="WIyWlLk6GJQsqaUBKTNV-1" vertex="1">
          <mxGeometry x="-1475" y="613" width="30" height="30" as="geometry" />
        </mxCell>
        <mxCell id="IgqxZhTUIi47PmuO_gBq-10" value="&lt;p style=&quot;margin:0px;margin-top:4px;text-align:center;&quot;&gt;&lt;b&gt;City&lt;/b&gt;&lt;/p&gt;&lt;hr size=&quot;1&quot; style=&quot;border-style:solid;&quot;&gt;&lt;p style=&quot;margin:0px;margin-left:4px;&quot;&gt;+ id&amp;nbsp;&lt;/p&gt;&lt;p style=&quot;margin:0px;margin-left:4px;&quot;&gt;+ Name&lt;/p&gt;&lt;hr size=&quot;1&quot; style=&quot;border-style:solid;&quot;&gt;&lt;p style=&quot;margin:0px;margin-left:4px;&quot;&gt;&lt;br&gt;&lt;/p&gt;" style="verticalAlign=top;align=left;overflow=fill;html=1;whiteSpace=wrap;fillColor=#f5f5f5;rounded=1;gradientColor=#b3b3b3;strokeColor=#666666;" parent="WIyWlLk6GJQsqaUBKTNV-1" vertex="1">
          <mxGeometry x="-966" y="-58" width="160" height="90" as="geometry" />
        </mxCell>
        <mxCell id="IgqxZhTUIi47PmuO_gBq-11" value="&lt;p style=&quot;margin:0px;margin-top:4px;text-align:center;&quot;&gt;&lt;b&gt;Country&lt;/b&gt;&lt;/p&gt;&lt;hr size=&quot;1&quot; style=&quot;border-style:solid;&quot;&gt;&lt;p style=&quot;margin:0px;margin-left:4px;&quot;&gt;+ id&lt;/p&gt;&lt;p style=&quot;margin:0px;margin-left:4px;&quot;&gt;+ name&lt;/p&gt;&lt;hr size=&quot;1&quot; style=&quot;border-style:solid;&quot;&gt;&lt;p style=&quot;margin:0px;margin-left:4px;&quot;&gt;&lt;br&gt;&lt;/p&gt;" style="verticalAlign=top;align=left;overflow=fill;html=1;whiteSpace=wrap;fillColor=#f5f5f5;rounded=1;gradientColor=#b3b3b3;strokeColor=#666666;" parent="WIyWlLk6GJQsqaUBKTNV-1" vertex="1">
          <mxGeometry x="-980" y="-220" width="160" height="90" as="geometry" />
        </mxCell>
        <mxCell id="IgqxZhTUIi47PmuO_gBq-12" value="" style="endArrow=none;html=1;edgeStyle=orthogonalEdgeStyle;rounded=1;exitX=0.5;exitY=0;exitDx=0;exitDy=0;entryX=0.5;entryY=1;entryDx=0;entryDy=0;" parent="WIyWlLk6GJQsqaUBKTNV-1" source="QMsvHpXPwVjZWoKo-MYo-525" target="IgqxZhTUIi47PmuO_gBq-10" edge="1">
          <mxGeometry relative="1" as="geometry">
            <mxPoint x="-873" y="70" as="sourcePoint" />
            <mxPoint x="-713" y="70" as="targetPoint" />
          </mxGeometry>
        </mxCell>
        <mxCell id="IgqxZhTUIi47PmuO_gBq-18" value="*" style="text;html=1;align=center;verticalAlign=middle;resizable=0;points=[];autosize=1;strokeColor=none;fillColor=none;rounded=1;" parent="WIyWlLk6GJQsqaUBKTNV-1" vertex="1">
          <mxGeometry x="-888" y="68" width="30" height="30" as="geometry" />
        </mxCell>
        <mxCell id="IgqxZhTUIi47PmuO_gBq-19" value="1" style="text;html=1;align=center;verticalAlign=middle;resizable=0;points=[];autosize=1;strokeColor=none;fillColor=none;rounded=1;" parent="WIyWlLk6GJQsqaUBKTNV-1" vertex="1">
          <mxGeometry x="-888" y="30" width="30" height="30" as="geometry" />
        </mxCell>
        <mxCell id="IgqxZhTUIi47PmuO_gBq-20" value="*" style="text;html=1;align=center;verticalAlign=middle;resizable=0;points=[];autosize=1;strokeColor=none;fillColor=none;rounded=1;" parent="WIyWlLk6GJQsqaUBKTNV-1" vertex="1">
          <mxGeometry x="-913" y="-80" width="30" height="30" as="geometry" />
        </mxCell>
        <mxCell id="IgqxZhTUIi47PmuO_gBq-21" value="1" style="text;html=1;align=center;verticalAlign=middle;resizable=0;points=[];autosize=1;strokeColor=none;fillColor=none;rounded=1;" parent="WIyWlLk6GJQsqaUBKTNV-1" vertex="1">
          <mxGeometry x="-908" y="-140" width="30" height="30" as="geometry" />
        </mxCell>
        <mxCell id="IgqxZhTUIi47PmuO_gBq-22" value="&lt;p style=&quot;margin:0px;margin-top:4px;text-align:center;&quot;&gt;&lt;b&gt;Payment Type&lt;/b&gt;&lt;/p&gt;&lt;hr size=&quot;1&quot; style=&quot;border-style:solid;&quot;&gt;&lt;p style=&quot;margin:0px;margin-left:4px;&quot;&gt;+ id&lt;/p&gt;&lt;p style=&quot;margin:0px;margin-left:4px;&quot;&gt;+ Name&lt;/p&gt;&lt;p style=&quot;margin:0px;margin-left:4px;&quot;&gt;&lt;br&gt;&lt;/p&gt;&lt;hr size=&quot;1&quot; style=&quot;border-style:solid;&quot;&gt;&lt;p style=&quot;margin:0px;margin-left:4px;&quot;&gt;&lt;br&gt;&lt;/p&gt;" style="verticalAlign=top;align=left;overflow=fill;html=1;whiteSpace=wrap;fillColor=#f5f5f5;rounded=1;gradientColor=#b3b3b3;strokeColor=#666666;" parent="WIyWlLk6GJQsqaUBKTNV-1" vertex="1">
          <mxGeometry x="-1880" y="660" width="160" height="70" as="geometry" />
        </mxCell>
        <mxCell id="IgqxZhTUIi47PmuO_gBq-23" value="&lt;p style=&quot;margin:0px;margin-top:4px;text-align:center;&quot;&gt;&lt;b&gt;Reserve&lt;/b&gt;&lt;/p&gt;&lt;hr size=&quot;1&quot; style=&quot;border-style:solid;&quot;&gt;&lt;p style=&quot;margin:0px;margin-left:4px;&quot;&gt;+ id&amp;nbsp;&lt;/p&gt;&lt;p style=&quot;margin:0px;margin-left:4px;&quot;&gt;+ State&lt;/p&gt;&lt;p style=&quot;margin:0px;margin-left:4px;&quot;&gt;+ Reservation Date&lt;/p&gt;&lt;p style=&quot;margin:0px;margin-left:4px;&quot;&gt;&lt;br&gt;&lt;/p&gt;&lt;p style=&quot;margin:0px;margin-left:4px;&quot;&gt;&lt;br&gt;&lt;/p&gt;" style="verticalAlign=top;align=left;overflow=fill;html=1;whiteSpace=wrap;fillColor=#f5f5f5;rounded=1;gradientColor=#b3b3b3;strokeColor=#666666;" parent="WIyWlLk6GJQsqaUBKTNV-1" vertex="1">
          <mxGeometry x="-1700" y="364.63" width="160" height="83" as="geometry" />
        </mxCell>
        <mxCell id="IgqxZhTUIi47PmuO_gBq-24" value="&lt;p style=&quot;margin:0px;margin-top:4px;text-align:center;&quot;&gt;&lt;b&gt;Cancellation&lt;/b&gt;&lt;/p&gt;&lt;hr size=&quot;1&quot; style=&quot;border-style:solid;&quot;&gt;&lt;p style=&quot;margin:0px;margin-left:4px;&quot;&gt;+ id&amp;nbsp;&lt;/p&gt;&lt;p style=&quot;margin:0px;margin-left:4px;&quot;&gt;+ Reason&lt;/p&gt;&lt;p style=&quot;margin:0px;margin-left:4px;&quot;&gt;+ Cancellation Date&lt;/p&gt;&lt;p style=&quot;margin:0px;margin-left:4px;&quot;&gt;+ Penalty&lt;/p&gt;" style="verticalAlign=top;align=left;overflow=fill;html=1;whiteSpace=wrap;fillColor=#f5f5f5;rounded=1;gradientColor=#b3b3b3;strokeColor=#666666;" parent="WIyWlLk6GJQsqaUBKTNV-1" vertex="1">
          <mxGeometry x="-1700" y="208" width="160" height="90" as="geometry" />
        </mxCell>
        <mxCell id="IgqxZhTUIi47PmuO_gBq-25" value="&lt;p style=&quot;margin:0px;margin-top:4px;text-align:center;&quot;&gt;&lt;b&gt;Payment&lt;/b&gt;&lt;/p&gt;&lt;hr size=&quot;1&quot; style=&quot;border-style:solid;&quot;&gt;&lt;p style=&quot;margin:0px;margin-left:4px;&quot;&gt;+ id&lt;/p&gt;&lt;p style=&quot;margin:0px;margin-left:4px;&quot;&gt;+ Currency&amp;nbsp;&lt;/p&gt;&lt;p style=&quot;margin:0px;margin-left:4px;&quot;&gt;+ Amount&lt;/p&gt;&lt;p style=&quot;margin:0px;margin-left:4px;&quot;&gt;+ Date&lt;/p&gt;" style="verticalAlign=top;align=left;overflow=fill;html=1;whiteSpace=wrap;fillColor=#f5f5f5;rounded=1;gradientColor=#b3b3b3;strokeColor=#666666;" parent="WIyWlLk6GJQsqaUBKTNV-1" vertex="1">
          <mxGeometry x="-1880" y="500" width="160" height="98" as="geometry" />
        </mxCell>
        <mxCell id="IgqxZhTUIi47PmuO_gBq-32" value="&lt;p style=&quot;margin:0px;margin-top:4px;text-align:center;&quot;&gt;&lt;b&gt;Confirmation&lt;/b&gt;&lt;/p&gt;&lt;hr size=&quot;1&quot; style=&quot;border-style:solid;&quot;&gt;&lt;p style=&quot;margin:0px;margin-left:4px;&quot;&gt;+ id&lt;/p&gt;&lt;p style=&quot;margin:0px;margin-left:4px;&quot;&gt;+ Date&lt;/p&gt;&lt;p style=&quot;margin:0px;margin-left:4px;&quot;&gt;&lt;br&gt;&lt;/p&gt;" style="verticalAlign=top;align=left;overflow=fill;html=1;whiteSpace=wrap;fillColor=#f5f5f5;rounded=1;gradientColor=#b3b3b3;strokeColor=#666666;" parent="WIyWlLk6GJQsqaUBKTNV-1" vertex="1">
          <mxGeometry x="-1930" y="373" width="160" height="62" as="geometry" />
        </mxCell>
        <mxCell id="IgqxZhTUIi47PmuO_gBq-36" value="" style="endArrow=none;html=1;edgeStyle=orthogonalEdgeStyle;rounded=1;exitX=1.005;exitY=0.578;exitDx=0;exitDy=0;exitPerimeter=0;entryX=-0.006;entryY=0.644;entryDx=0;entryDy=0;entryPerimeter=0;" parent="WIyWlLk6GJQsqaUBKTNV-1" source="IgqxZhTUIi47PmuO_gBq-23" target="QMsvHpXPwVjZWoKo-MYo-494" edge="1">
          <mxGeometry relative="1" as="geometry">
            <mxPoint x="-1520" y="500" as="sourcePoint" />
            <mxPoint x="-1420" y="490" as="targetPoint" />
          </mxGeometry>
        </mxCell>
        <mxCell id="IgqxZhTUIi47PmuO_gBq-39" value="" style="endArrow=none;html=1;edgeStyle=orthogonalEdgeStyle;rounded=1;exitX=0.5;exitY=0;exitDx=0;exitDy=0;entryX=0.5;entryY=1;entryDx=0;entryDy=0;" parent="WIyWlLk6GJQsqaUBKTNV-1" source="IgqxZhTUIi47PmuO_gBq-23" target="IgqxZhTUIi47PmuO_gBq-24" edge="1">
          <mxGeometry relative="1" as="geometry">
            <mxPoint x="-1600" y="334.38" as="sourcePoint" />
            <mxPoint x="-1440" y="334.38" as="targetPoint" />
          </mxGeometry>
        </mxCell>
        <mxCell id="IgqxZhTUIi47PmuO_gBq-42" value="0..1" style="text;html=1;align=center;verticalAlign=middle;resizable=0;points=[];autosize=1;strokeColor=none;fillColor=none;rounded=1;" parent="WIyWlLk6GJQsqaUBKTNV-1" vertex="1">
          <mxGeometry x="-1540" y="382.13" width="40" height="30" as="geometry" />
        </mxCell>
        <mxCell id="IgqxZhTUIi47PmuO_gBq-43" value="1" style="text;html=1;align=center;verticalAlign=middle;resizable=0;points=[];autosize=1;strokeColor=none;fillColor=none;rounded=1;" parent="WIyWlLk6GJQsqaUBKTNV-1" vertex="1">
          <mxGeometry x="-1470" y="427.75" width="30" height="30" as="geometry" />
        </mxCell>
        <mxCell id="IgqxZhTUIi47PmuO_gBq-44" value="1" style="text;html=1;align=center;verticalAlign=middle;resizable=0;points=[];autosize=1;strokeColor=none;fillColor=none;rounded=1;" parent="WIyWlLk6GJQsqaUBKTNV-1" vertex="1">
          <mxGeometry x="-1650" y="334.63" width="30" height="30" as="geometry" />
        </mxCell>
        <mxCell id="IgqxZhTUIi47PmuO_gBq-45" value="0..1" style="text;html=1;align=center;verticalAlign=middle;resizable=0;points=[];autosize=1;strokeColor=none;fillColor=none;rounded=1;" parent="WIyWlLk6GJQsqaUBKTNV-1" vertex="1">
          <mxGeometry x="-1655" y="298" width="40" height="30" as="geometry" />
        </mxCell>
        <mxCell id="IgqxZhTUIi47PmuO_gBq-52" value="" style="endArrow=none;html=1;edgeStyle=orthogonalEdgeStyle;rounded=1;exitX=1.001;exitY=0.669;exitDx=0;exitDy=0;exitPerimeter=0;entryX=-0.004;entryY=0.612;entryDx=0;entryDy=0;entryPerimeter=0;" parent="WIyWlLk6GJQsqaUBKTNV-1" source="IgqxZhTUIi47PmuO_gBq-32" target="IgqxZhTUIi47PmuO_gBq-23" edge="1">
          <mxGeometry relative="1" as="geometry">
            <mxPoint x="-1820" y="474.38" as="sourcePoint" />
            <mxPoint x="-1720" y="454.38" as="targetPoint" />
          </mxGeometry>
        </mxCell>
        <mxCell id="IgqxZhTUIi47PmuO_gBq-55" value="&lt;p style=&quot;margin:0px;margin-top:4px;text-align:center;&quot;&gt;&lt;b&gt;Category&lt;/b&gt;&lt;/p&gt;&lt;hr size=&quot;1&quot; style=&quot;border-style:solid;&quot;&gt;&lt;p style=&quot;margin:0px;margin-left:4px;&quot;&gt;+ id&amp;nbsp;&lt;/p&gt;&lt;p style=&quot;margin:0px;margin-left:4px;&quot;&gt;+ Name&lt;/p&gt;" style="verticalAlign=top;align=left;overflow=fill;html=1;whiteSpace=wrap;fillColor=#f5f5f5;rounded=1;gradientColor=#b3b3b3;strokeColor=#666666;" parent="WIyWlLk6GJQsqaUBKTNV-1" vertex="1">
          <mxGeometry x="-1670" y="496" width="160" height="64" as="geometry" />
        </mxCell>
        <mxCell id="IgqxZhTUIi47PmuO_gBq-56" value="" style="endArrow=none;html=1;edgeStyle=orthogonalEdgeStyle;rounded=1;exitX=1.005;exitY=0.588;exitDx=0;exitDy=0;exitPerimeter=0;entryX=0.127;entryY=0.998;entryDx=0;entryDy=0;entryPerimeter=0;" parent="WIyWlLk6GJQsqaUBKTNV-1" source="IgqxZhTUIi47PmuO_gBq-55" target="QMsvHpXPwVjZWoKo-MYo-494" edge="1">
          <mxGeometry relative="1" as="geometry">
            <mxPoint x="-1490" y="530" as="sourcePoint" />
            <mxPoint x="-1330" y="530" as="targetPoint" />
          </mxGeometry>
        </mxCell>
        <mxCell id="IgqxZhTUIi47PmuO_gBq-59" value="1" style="text;html=1;align=center;verticalAlign=middle;resizable=0;points=[];autosize=1;strokeColor=none;fillColor=none;rounded=1;" parent="WIyWlLk6GJQsqaUBKTNV-1" vertex="1">
          <mxGeometry x="-1515" y="508" width="30" height="30" as="geometry" />
        </mxCell>
        <mxCell id="IgqxZhTUIi47PmuO_gBq-60" value="1..*" style="text;html=1;align=center;verticalAlign=middle;resizable=0;points=[];autosize=1;strokeColor=none;fillColor=none;rounded=1;" parent="WIyWlLk6GJQsqaUBKTNV-1" vertex="1">
          <mxGeometry x="-1450" y="478" width="40" height="30" as="geometry" />
        </mxCell>
        <mxCell id="IgqxZhTUIi47PmuO_gBq-62" value="1" style="text;html=1;align=center;verticalAlign=middle;resizable=0;points=[];autosize=1;strokeColor=none;fillColor=none;rounded=1;" parent="WIyWlLk6GJQsqaUBKTNV-1" vertex="1">
          <mxGeometry x="-1730" y="388" width="30" height="30" as="geometry" />
        </mxCell>
        <mxCell id="IgqxZhTUIi47PmuO_gBq-63" value="0..1" style="text;html=1;align=center;verticalAlign=middle;resizable=0;points=[];autosize=1;strokeColor=none;fillColor=none;rounded=1;" parent="WIyWlLk6GJQsqaUBKTNV-1" vertex="1">
          <mxGeometry x="-1770" y="388" width="40" height="30" as="geometry" />
        </mxCell>
        <mxCell id="IgqxZhTUIi47PmuO_gBq-67" value="1" style="text;html=1;align=center;verticalAlign=middle;resizable=0;points=[];autosize=1;strokeColor=none;fillColor=none;rounded=1;" parent="WIyWlLk6GJQsqaUBKTNV-1" vertex="1">
          <mxGeometry x="-1830" y="640" width="30" height="30" as="geometry" />
        </mxCell>
        <mxCell id="IgqxZhTUIi47PmuO_gBq-68" value="*" style="text;html=1;align=center;verticalAlign=middle;resizable=0;points=[];autosize=1;strokeColor=none;fillColor=none;rounded=1;" parent="WIyWlLk6GJQsqaUBKTNV-1" vertex="1">
          <mxGeometry x="-1830" y="598" width="30" height="30" as="geometry" />
        </mxCell>
        <mxCell id="IgqxZhTUIi47PmuO_gBq-70" value="&lt;p style=&quot;margin:0px;margin-top:4px;text-align:center;&quot;&gt;&lt;b&gt;Type Assignment&lt;/b&gt;&lt;/p&gt;&lt;hr size=&quot;1&quot; style=&quot;border-style:solid;&quot;&gt;&lt;p style=&quot;margin:0px;margin-left:4px;&quot;&gt;+ id&amp;nbsp;&lt;/p&gt;&lt;p style=&quot;margin:0px;margin-left:4px;&quot;&gt;+ Date&lt;/p&gt;&lt;p style=&quot;margin:0px;margin-left:4px;&quot;&gt;&lt;br&gt;&lt;/p&gt;" style="verticalAlign=top;align=left;overflow=fill;html=1;whiteSpace=wrap;fillColor=#f5f5f5;rounded=1;gradientColor=#b3b3b3;strokeColor=#666666;" parent="WIyWlLk6GJQsqaUBKTNV-1" vertex="1">
          <mxGeometry x="-1220" y="118" width="160" height="70" as="geometry" />
        </mxCell>
        <mxCell id="IgqxZhTUIi47PmuO_gBq-71" value="" style="endArrow=none;html=1;edgeStyle=orthogonalEdgeStyle;rounded=1;exitX=0.75;exitY=0;exitDx=0;exitDy=0;entryX=0.549;entryY=0.98;entryDx=0;entryDy=0;entryPerimeter=0;" parent="WIyWlLk6GJQsqaUBKTNV-1" source="QMsvHpXPwVjZWoKo-MYo-491" target="IgqxZhTUIi47PmuO_gBq-70" edge="1">
          <mxGeometry relative="1" as="geometry">
            <mxPoint x="-1290" y="220" as="sourcePoint" />
            <mxPoint x="-1130" y="220" as="targetPoint" />
          </mxGeometry>
        </mxCell>
        <mxCell id="IgqxZhTUIi47PmuO_gBq-74" value="1" style="text;html=1;align=center;verticalAlign=middle;resizable=0;points=[];autosize=1;strokeColor=none;fillColor=none;rounded=1;" parent="WIyWlLk6GJQsqaUBKTNV-1" vertex="1">
          <mxGeometry x="-1315" y="230" width="30" height="30" as="geometry" />
        </mxCell>
        <mxCell id="IgqxZhTUIi47PmuO_gBq-75" value="*" style="text;html=1;align=center;verticalAlign=middle;resizable=0;points=[];autosize=1;strokeColor=none;fillColor=none;rounded=1;" parent="WIyWlLk6GJQsqaUBKTNV-1" vertex="1">
          <mxGeometry x="-1165" y="188" width="30" height="30" as="geometry" />
        </mxCell>
        <mxCell id="IgqxZhTUIi47PmuO_gBq-76" value="&lt;p style=&quot;margin:0px;margin-top:4px;text-align:center;&quot;&gt;&lt;b&gt;Customer Type&lt;/b&gt;&lt;/p&gt;&lt;hr size=&quot;1&quot; style=&quot;border-style:solid;&quot;&gt;&lt;p style=&quot;margin:0px;margin-left:4px;&quot;&gt;+ id&amp;nbsp;&lt;/p&gt;&lt;p style=&quot;margin:0px;margin-left:4px;&quot;&gt;+ Name&amp;nbsp;&lt;/p&gt;&lt;p style=&quot;margin:0px;margin-left:4px;&quot;&gt;+ Description&lt;/p&gt;" style="verticalAlign=top;align=left;overflow=fill;html=1;whiteSpace=wrap;fillColor=#f5f5f5;rounded=1;gradientColor=#b3b3b3;strokeColor=#666666;" parent="WIyWlLk6GJQsqaUBKTNV-1" vertex="1">
          <mxGeometry x="-1220" y="-30" width="160" height="80" as="geometry" />
        </mxCell>
        <mxCell id="IgqxZhTUIi47PmuO_gBq-77" value="" style="endArrow=none;html=1;edgeStyle=orthogonalEdgeStyle;rounded=1;exitX=0.5;exitY=0;exitDx=0;exitDy=0;entryX=0.5;entryY=1;entryDx=0;entryDy=0;" parent="WIyWlLk6GJQsqaUBKTNV-1" source="IgqxZhTUIi47PmuO_gBq-70" target="IgqxZhTUIi47PmuO_gBq-76" edge="1">
          <mxGeometry relative="1" as="geometry">
            <mxPoint x="-1150" y="90" as="sourcePoint" />
            <mxPoint x="-990" y="90" as="targetPoint" />
          </mxGeometry>
        </mxCell>
        <mxCell id="IgqxZhTUIi47PmuO_gBq-80" value="*" style="text;html=1;align=center;verticalAlign=middle;resizable=0;points=[];autosize=1;strokeColor=none;fillColor=none;rounded=1;" parent="WIyWlLk6GJQsqaUBKTNV-1" vertex="1">
          <mxGeometry x="-1165" y="88" width="30" height="30" as="geometry" />
        </mxCell>
        <mxCell id="IgqxZhTUIi47PmuO_gBq-81" value="1" style="text;html=1;align=center;verticalAlign=middle;resizable=0;points=[];autosize=1;strokeColor=none;fillColor=none;rounded=1;" parent="WIyWlLk6GJQsqaUBKTNV-1" vertex="1">
          <mxGeometry x="-1165" y="48" width="30" height="30" as="geometry" />
        </mxCell>
        <mxCell id="IgqxZhTUIi47PmuO_gBq-82" value="&lt;p style=&quot;margin:0px;margin-top:4px;text-align:center;&quot;&gt;&lt;b&gt;Document&lt;/b&gt;&lt;/p&gt;&lt;hr size=&quot;1&quot; style=&quot;border-style:solid;&quot;&gt;&lt;p style=&quot;margin:0px;margin-left:4px;&quot;&gt;+ ci&amp;nbsp;&lt;/p&gt;&lt;p style=&quot;margin:0px;margin-left:4px;&quot;&gt;+ Date of Issue&lt;/p&gt;&lt;p style=&quot;margin:0px;margin-left:4px;&quot;&gt;+ Valid Date&lt;/p&gt;&lt;p style=&quot;margin:0px;margin-left:4px;&quot;&gt;&lt;br&gt;&lt;/p&gt;" style="verticalAlign=top;align=left;overflow=fill;html=1;whiteSpace=wrap;fillColor=#f5f5f5;rounded=1;gradientColor=#b3b3b3;strokeColor=#666666;" parent="WIyWlLk6GJQsqaUBKTNV-1" vertex="1">
          <mxGeometry x="-1190" y="490" width="160" height="80" as="geometry" />
        </mxCell>
        <mxCell id="IgqxZhTUIi47PmuO_gBq-83" value="" style="endArrow=none;html=1;edgeStyle=orthogonalEdgeStyle;rounded=1;exitX=0.75;exitY=1;exitDx=0;exitDy=0;entryX=0;entryY=0.5;entryDx=0;entryDy=0;" parent="WIyWlLk6GJQsqaUBKTNV-1" source="QMsvHpXPwVjZWoKo-MYo-494" target="IgqxZhTUIi47PmuO_gBq-82" edge="1">
          <mxGeometry relative="1" as="geometry">
            <mxPoint x="-1300" y="570" as="sourcePoint" />
            <mxPoint x="-1320" y="560" as="targetPoint" />
          </mxGeometry>
        </mxCell>
        <mxCell id="IgqxZhTUIi47PmuO_gBq-86" value="&lt;p style=&quot;margin:0px;margin-top:4px;text-align:center;&quot;&gt;&lt;b&gt;Type Document&lt;/b&gt;&lt;/p&gt;&lt;hr size=&quot;1&quot; style=&quot;border-style:solid;&quot;&gt;&lt;p style=&quot;margin:0px;margin-left:4px;&quot;&gt;+ id&lt;/p&gt;&lt;p style=&quot;margin:0px;margin-left:4px;&quot;&gt;+ Name&lt;/p&gt;" style="verticalAlign=top;align=left;overflow=fill;html=1;whiteSpace=wrap;fillColor=#f5f5f5;rounded=1;gradientColor=#b3b3b3;strokeColor=#666666;" parent="WIyWlLk6GJQsqaUBKTNV-1" vertex="1">
          <mxGeometry x="-1190" y="301.13" width="160" height="70" as="geometry" />
        </mxCell>
        <mxCell id="IgqxZhTUIi47PmuO_gBq-91" value="*" style="text;html=1;align=center;verticalAlign=middle;resizable=0;points=[];autosize=1;strokeColor=none;fillColor=none;rounded=1;" parent="WIyWlLk6GJQsqaUBKTNV-1" vertex="1">
          <mxGeometry x="-1135" y="460" width="30" height="30" as="geometry" />
        </mxCell>
        <mxCell id="IgqxZhTUIi47PmuO_gBq-92" value="1" style="text;html=1;align=center;verticalAlign=middle;resizable=0;points=[];autosize=1;strokeColor=none;fillColor=none;rounded=1;" parent="WIyWlLk6GJQsqaUBKTNV-1" vertex="1">
          <mxGeometry x="-1135" y="365" width="30" height="30" as="geometry" />
        </mxCell>
        <mxCell id="IgqxZhTUIi47PmuO_gBq-93" value="*..1" style="text;html=1;align=center;verticalAlign=middle;resizable=0;points=[];autosize=1;strokeColor=none;fillColor=none;rounded=1;" parent="WIyWlLk6GJQsqaUBKTNV-1" vertex="1">
          <mxGeometry x="-1320" y="480" width="40" height="30" as="geometry" />
        </mxCell>
        <mxCell id="IgqxZhTUIi47PmuO_gBq-94" value="1" style="text;html=1;align=center;verticalAlign=middle;resizable=0;points=[];autosize=1;strokeColor=none;fillColor=none;rounded=1;" parent="WIyWlLk6GJQsqaUBKTNV-1" vertex="1">
          <mxGeometry x="-1220" y="498" width="30" height="30" as="geometry" />
        </mxCell>
        <mxCell id="IgqxZhTUIi47PmuO_gBq-95" value="&lt;p style=&quot;margin:0px;margin-top:4px;text-align:center;&quot;&gt;&lt;b style=&quot;background-color: initial;&quot;&gt;Flight&amp;nbsp;&lt;/b&gt;&lt;b&gt;Cancellation&amp;nbsp;&lt;/b&gt;&lt;/p&gt;&lt;hr size=&quot;1&quot; style=&quot;border-style:solid;&quot;&gt;&lt;p style=&quot;margin:0px;margin-left:4px;&quot;&gt;+ id&amp;nbsp;&lt;/p&gt;&lt;p style=&quot;margin:0px;margin-left:4px;&quot;&gt;+ Reason&amp;nbsp;&lt;/p&gt;&lt;p style=&quot;margin:0px;margin-left:4px;&quot;&gt;+ Cancellation Date&lt;/p&gt;" style="verticalAlign=top;align=left;overflow=fill;html=1;whiteSpace=wrap;fillColor=#f5f5f5;rounded=1;gradientColor=#b3b3b3;strokeColor=#666666;" parent="WIyWlLk6GJQsqaUBKTNV-1" vertex="1">
          <mxGeometry x="-463" y="610" width="160" height="80" as="geometry" />
        </mxCell>
        <mxCell id="IgqxZhTUIi47PmuO_gBq-99" value="0..1" style="text;html=1;align=center;verticalAlign=middle;resizable=0;points=[];autosize=1;strokeColor=none;fillColor=none;rounded=1;arcSize=0;" parent="WIyWlLk6GJQsqaUBKTNV-1" vertex="1">
          <mxGeometry x="-500" y="627" width="40" height="30" as="geometry" />
        </mxCell>
        <mxCell id="IgqxZhTUIi47PmuO_gBq-100" value="1..*" style="text;html=1;align=center;verticalAlign=middle;resizable=0;points=[];autosize=1;strokeColor=none;fillColor=none;rounded=1;" parent="WIyWlLk6GJQsqaUBKTNV-1" vertex="1">
          <mxGeometry x="-560" y="630" width="40" height="30" as="geometry" />
        </mxCell>
        <mxCell id="QMsvHpXPwVjZWoKo-MYo-486" value="&lt;p style=&quot;margin:0px;margin-top:4px;text-align:center;&quot;&gt;&lt;b&gt;Frequent Flyer Card&lt;/b&gt;&lt;/p&gt;&lt;hr size=&quot;1&quot; style=&quot;border-style:solid;&quot;&gt;&lt;p style=&quot;margin:0px;margin-left:4px;&quot;&gt;+ FFC Number&lt;/p&gt;&lt;p style=&quot;margin:0px;margin-left:4px;&quot;&gt;+ Miles&amp;nbsp;&lt;/p&gt;&lt;p style=&quot;margin:0px;margin-left:4px;&quot;&gt;+ MealCode&lt;/p&gt;&lt;hr size=&quot;1&quot; style=&quot;border-style:solid;&quot;&gt;&lt;p style=&quot;margin:0px;margin-left:4px;&quot;&gt;&lt;br&gt;&lt;/p&gt;" style="verticalAlign=top;align=left;overflow=fill;html=1;whiteSpace=wrap;movable=1;resizable=1;rotatable=1;deletable=1;editable=1;locked=0;connectable=1;gradientDirection=north;rounded=1;fillColor=#dae8fc;strokeColor=#6c8ebf;gradientColor=#7ea6e0;" parent="WIyWlLk6GJQsqaUBKTNV-1" vertex="1">
          <mxGeometry x="-1440" y="100" width="160" height="80" as="geometry" />
        </mxCell>
        <mxCell id="9k5Hwaq2Z3CcMoTksa47-33" value="" style="endArrow=none;html=1;rounded=1;exitX=0.25;exitY=1;exitDx=0;exitDy=0;curved=0;" edge="1" parent="WIyWlLk6GJQsqaUBKTNV-1" source="IgqxZhTUIi47PmuO_gBq-23">
          <mxGeometry relative="1" as="geometry">
            <mxPoint x="-1680" y="450" as="sourcePoint" />
            <mxPoint x="-1800" y="499" as="targetPoint" />
            <Array as="points">
              <mxPoint x="-1660" y="470" />
              <mxPoint x="-1800" y="470" />
            </Array>
          </mxGeometry>
        </mxCell>
        <mxCell id="9k5Hwaq2Z3CcMoTksa47-35" value="" style="endArrow=none;html=1;rounded=0;exitX=0.591;exitY=1.023;exitDx=0;exitDy=0;exitPerimeter=0;" edge="1" parent="WIyWlLk6GJQsqaUBKTNV-1" source="IgqxZhTUIi47PmuO_gBq-11" target="IgqxZhTUIi47PmuO_gBq-10">
          <mxGeometry relative="1" as="geometry">
            <mxPoint x="-933" y="20" as="sourcePoint" />
            <mxPoint x="-773" y="20" as="targetPoint" />
          </mxGeometry>
        </mxCell>
        <mxCell id="9k5Hwaq2Z3CcMoTksa47-39" value="" style="endArrow=none;html=1;rounded=0;entryX=0.859;entryY=0.018;entryDx=0;entryDy=0;entryPerimeter=0;exitX=0.078;exitY=0.096;exitDx=0;exitDy=0;exitPerimeter=0;" edge="1" parent="WIyWlLk6GJQsqaUBKTNV-1" source="QMsvHpXPwVjZWoKo-MYo-562" target="QMsvHpXPwVjZWoKo-MYo-563">
          <mxGeometry relative="1" as="geometry">
            <mxPoint x="-1220" y="665" as="sourcePoint" />
            <mxPoint x="-1060" y="665" as="targetPoint" />
          </mxGeometry>
        </mxCell>
        <mxCell id="9k5Hwaq2Z3CcMoTksa47-41" value="Airline" style="swimlane;fontStyle=0;childLayout=stackLayout;horizontal=1;startSize=26;fillColor=#f8cecc;horizontalStack=0;resizeParent=1;resizeParentMax=0;resizeLast=0;collapsible=1;marginBottom=0;whiteSpace=wrap;html=1;rounded=1;gradientColor=#ea6b66;strokeColor=#b85450;" vertex="1" parent="WIyWlLk6GJQsqaUBKTNV-1">
          <mxGeometry x="-900" y="752" width="140" height="104" as="geometry" />
        </mxCell>
        <mxCell id="9k5Hwaq2Z3CcMoTksa47-42" value="+ id" style="text;strokeColor=none;fillColor=none;align=left;verticalAlign=top;spacingLeft=4;spacingRight=4;overflow=hidden;rotatable=0;points=[[0,0.5],[1,0.5]];portConstraint=eastwest;whiteSpace=wrap;html=1;" vertex="1" parent="9k5Hwaq2Z3CcMoTksa47-41">
          <mxGeometry y="26" width="140" height="26" as="geometry" />
        </mxCell>
        <mxCell id="9k5Hwaq2Z3CcMoTksa47-43" value="+ Date" style="text;strokeColor=none;fillColor=none;align=left;verticalAlign=top;spacingLeft=4;spacingRight=4;overflow=hidden;rotatable=0;points=[[0,0.5],[1,0.5]];portConstraint=eastwest;whiteSpace=wrap;html=1;" vertex="1" parent="9k5Hwaq2Z3CcMoTksa47-41">
          <mxGeometry y="52" width="140" height="26" as="geometry" />
        </mxCell>
        <mxCell id="9k5Hwaq2Z3CcMoTksa47-44" value="+ field: type" style="text;strokeColor=none;fillColor=none;align=left;verticalAlign=top;spacingLeft=4;spacingRight=4;overflow=hidden;rotatable=0;points=[[0,0.5],[1,0.5]];portConstraint=eastwest;whiteSpace=wrap;html=1;" vertex="1" parent="9k5Hwaq2Z3CcMoTksa47-41">
          <mxGeometry y="78" width="140" height="26" as="geometry" />
        </mxCell>
        <mxCell id="9k5Hwaq2Z3CcMoTksa47-48" value="" style="endArrow=none;html=1;rounded=1;curved=0;" edge="1" parent="WIyWlLk6GJQsqaUBKTNV-1">
          <mxGeometry relative="1" as="geometry">
            <mxPoint x="-691" y="715" as="sourcePoint" />
            <mxPoint x="-840" y="750" as="targetPoint" />
            <Array as="points">
              <mxPoint x="-840" y="715" />
            </Array>
          </mxGeometry>
        </mxCell>
        <mxCell id="9k5Hwaq2Z3CcMoTksa47-49" value="1" style="text;strokeColor=none;fillColor=none;spacingLeft=4;spacingRight=4;overflow=hidden;rotatable=0;points=[[0,0.5],[1,0.5]];portConstraint=eastwest;fontSize=12;whiteSpace=wrap;html=1;" vertex="1" parent="WIyWlLk6GJQsqaUBKTNV-1">
          <mxGeometry x="-867" y="722" width="40" height="30" as="geometry" />
        </mxCell>
        <mxCell id="9k5Hwaq2Z3CcMoTksa47-50" value="1..*" style="text;strokeColor=none;fillColor=none;spacingLeft=4;spacingRight=4;overflow=hidden;rotatable=0;points=[[0,0.5],[1,0.5]];portConstraint=eastwest;fontSize=12;whiteSpace=wrap;html=1;" vertex="1" parent="WIyWlLk6GJQsqaUBKTNV-1">
          <mxGeometry x="-718.5" y="690" width="40" height="30" as="geometry" />
        </mxCell>
        <mxCell id="9k5Hwaq2Z3CcMoTksa47-52" value="Fligth Reprogrammings" style="swimlane;fontStyle=0;childLayout=stackLayout;horizontal=1;startSize=26;fillColor=#f8cecc;horizontalStack=0;resizeParent=1;resizeParentMax=0;resizeLast=0;collapsible=1;marginBottom=0;whiteSpace=wrap;html=1;rounded=1;gradientColor=#ea6b66;strokeColor=#b85450;" vertex="1" parent="WIyWlLk6GJQsqaUBKTNV-1">
          <mxGeometry x="-220" y="575" width="165" height="130" as="geometry" />
        </mxCell>
        <mxCell id="9k5Hwaq2Z3CcMoTksa47-53" value="+ id" style="text;strokeColor=none;fillColor=none;align=left;verticalAlign=top;spacingLeft=4;spacingRight=4;overflow=hidden;rotatable=0;points=[[0,0.5],[1,0.5]];portConstraint=eastwest;whiteSpace=wrap;html=1;" vertex="1" parent="9k5Hwaq2Z3CcMoTksa47-52">
          <mxGeometry y="26" width="165" height="26" as="geometry" />
        </mxCell>
        <mxCell id="9k5Hwaq2Z3CcMoTksa47-54" value="+ NewDepartureTime" style="text;strokeColor=none;fillColor=none;align=left;verticalAlign=top;spacingLeft=4;spacingRight=4;overflow=hidden;rotatable=0;points=[[0,0.5],[1,0.5]];portConstraint=eastwest;whiteSpace=wrap;html=1;" vertex="1" parent="9k5Hwaq2Z3CcMoTksa47-52">
          <mxGeometry y="52" width="165" height="26" as="geometry" />
        </mxCell>
        <mxCell id="9k5Hwaq2Z3CcMoTksa47-55" value="+ NewArrivalTime" style="text;strokeColor=none;fillColor=none;align=left;verticalAlign=top;spacingLeft=4;spacingRight=4;overflow=hidden;rotatable=0;points=[[0,0.5],[1,0.5]];portConstraint=eastwest;whiteSpace=wrap;html=1;" vertex="1" parent="9k5Hwaq2Z3CcMoTksa47-52">
          <mxGeometry y="78" width="165" height="26" as="geometry" />
        </mxCell>
        <mxCell id="9k5Hwaq2Z3CcMoTksa47-62" value="+ Reason" style="text;strokeColor=none;fillColor=none;align=left;verticalAlign=top;spacingLeft=4;spacingRight=4;overflow=hidden;rotatable=0;points=[[0,0.5],[1,0.5]];portConstraint=eastwest;whiteSpace=wrap;html=1;" vertex="1" parent="9k5Hwaq2Z3CcMoTksa47-52">
          <mxGeometry y="104" width="165" height="26" as="geometry" />
        </mxCell>
        <mxCell id="9k5Hwaq2Z3CcMoTksa47-58" value="" style="endArrow=none;html=1;rounded=1;curved=0;exitX=0.991;exitY=-0.061;exitDx=0;exitDy=0;exitPerimeter=0;" edge="1" parent="WIyWlLk6GJQsqaUBKTNV-1" source="9k5Hwaq2Z3CcMoTksa47-91" target="IgqxZhTUIi47PmuO_gBq-95">
          <mxGeometry relative="1" as="geometry">
            <mxPoint x="-810" y="540" as="sourcePoint" />
            <mxPoint x="-640" y="520" as="targetPoint" />
            <Array as="points" />
          </mxGeometry>
        </mxCell>
        <mxCell id="9k5Hwaq2Z3CcMoTksa47-68" value="Crew Members" style="swimlane;fontStyle=0;childLayout=stackLayout;horizontal=1;startSize=26;fillColor=#f8cecc;horizontalStack=0;resizeParent=1;resizeParentMax=0;resizeLast=0;collapsible=1;marginBottom=0;whiteSpace=wrap;html=1;rounded=1;gradientColor=#ea6b66;strokeColor=#b85450;" vertex="1" parent="WIyWlLk6GJQsqaUBKTNV-1">
          <mxGeometry x="-529" y="785" width="140" height="104" as="geometry" />
        </mxCell>
        <mxCell id="9k5Hwaq2Z3CcMoTksa47-69" value="+ id" style="text;strokeColor=none;fillColor=none;align=left;verticalAlign=top;spacingLeft=4;spacingRight=4;overflow=hidden;rotatable=0;points=[[0,0.5],[1,0.5]];portConstraint=eastwest;whiteSpace=wrap;html=1;" vertex="1" parent="9k5Hwaq2Z3CcMoTksa47-68">
          <mxGeometry y="26" width="140" height="26" as="geometry" />
        </mxCell>
        <mxCell id="9k5Hwaq2Z3CcMoTksa47-70" value="+ Name" style="text;strokeColor=none;fillColor=none;align=left;verticalAlign=top;spacingLeft=4;spacingRight=4;overflow=hidden;rotatable=0;points=[[0,0.5],[1,0.5]];portConstraint=eastwest;whiteSpace=wrap;html=1;" vertex="1" parent="9k5Hwaq2Z3CcMoTksa47-68">
          <mxGeometry y="52" width="140" height="26" as="geometry" />
        </mxCell>
        <mxCell id="9k5Hwaq2Z3CcMoTksa47-71" value="+ field: type" style="text;strokeColor=none;fillColor=none;align=left;verticalAlign=top;spacingLeft=4;spacingRight=4;overflow=hidden;rotatable=0;points=[[0,0.5],[1,0.5]];portConstraint=eastwest;whiteSpace=wrap;html=1;" vertex="1" parent="9k5Hwaq2Z3CcMoTksa47-68">
          <mxGeometry y="78" width="140" height="26" as="geometry" />
        </mxCell>
        <mxCell id="9k5Hwaq2Z3CcMoTksa47-76" value="Crew Assignmentes" style="swimlane;fontStyle=0;childLayout=stackLayout;horizontal=1;startSize=26;fillColor=#f8cecc;horizontalStack=0;resizeParent=1;resizeParentMax=0;resizeLast=0;collapsible=1;marginBottom=0;whiteSpace=wrap;html=1;rounded=1;gradientColor=#ea6b66;strokeColor=#b85450;" vertex="1" parent="WIyWlLk6GJQsqaUBKTNV-1">
          <mxGeometry x="-729" y="785" width="140" height="104" as="geometry" />
        </mxCell>
        <mxCell id="9k5Hwaq2Z3CcMoTksa47-77" value="+ id" style="text;strokeColor=none;fillColor=none;align=left;verticalAlign=top;spacingLeft=4;spacingRight=4;overflow=hidden;rotatable=0;points=[[0,0.5],[1,0.5]];portConstraint=eastwest;whiteSpace=wrap;html=1;" vertex="1" parent="9k5Hwaq2Z3CcMoTksa47-76">
          <mxGeometry y="26" width="140" height="26" as="geometry" />
        </mxCell>
        <mxCell id="9k5Hwaq2Z3CcMoTksa47-78" value="+ field: type" style="text;strokeColor=none;fillColor=none;align=left;verticalAlign=top;spacingLeft=4;spacingRight=4;overflow=hidden;rotatable=0;points=[[0,0.5],[1,0.5]];portConstraint=eastwest;whiteSpace=wrap;html=1;" vertex="1" parent="9k5Hwaq2Z3CcMoTksa47-76">
          <mxGeometry y="52" width="140" height="26" as="geometry" />
        </mxCell>
        <mxCell id="9k5Hwaq2Z3CcMoTksa47-79" value="+ field: type" style="text;strokeColor=none;fillColor=none;align=left;verticalAlign=top;spacingLeft=4;spacingRight=4;overflow=hidden;rotatable=0;points=[[0,0.5],[1,0.5]];portConstraint=eastwest;whiteSpace=wrap;html=1;" vertex="1" parent="9k5Hwaq2Z3CcMoTksa47-76">
          <mxGeometry y="78" width="140" height="26" as="geometry" />
        </mxCell>
        <mxCell id="9k5Hwaq2Z3CcMoTksa47-80" value="Flight Scales" style="swimlane;fontStyle=0;childLayout=stackLayout;horizontal=1;startSize=26;fillColor=#f8cecc;horizontalStack=0;resizeParent=1;resizeParentMax=0;resizeLast=0;collapsible=1;marginBottom=0;whiteSpace=wrap;html=1;rounded=1;gradientColor=#ea6b66;strokeColor=#b85450;" vertex="1" parent="WIyWlLk6GJQsqaUBKTNV-1">
          <mxGeometry x="-300" y="380" width="140" height="104" as="geometry" />
        </mxCell>
        <mxCell id="9k5Hwaq2Z3CcMoTksa47-81" value="+ id" style="text;strokeColor=none;fillColor=none;align=left;verticalAlign=top;spacingLeft=4;spacingRight=4;overflow=hidden;rotatable=0;points=[[0,0.5],[1,0.5]];portConstraint=eastwest;whiteSpace=wrap;html=1;" vertex="1" parent="9k5Hwaq2Z3CcMoTksa47-80">
          <mxGeometry y="26" width="140" height="26" as="geometry" />
        </mxCell>
        <mxCell id="9k5Hwaq2Z3CcMoTksa47-82" value="+ ScaleType" style="text;strokeColor=none;fillColor=none;align=left;verticalAlign=top;spacingLeft=4;spacingRight=4;overflow=hidden;rotatable=0;points=[[0,0.5],[1,0.5]];portConstraint=eastwest;whiteSpace=wrap;html=1;" vertex="1" parent="9k5Hwaq2Z3CcMoTksa47-80">
          <mxGeometry y="52" width="140" height="26" as="geometry" />
        </mxCell>
        <mxCell id="9k5Hwaq2Z3CcMoTksa47-83" value="+ ScaleTime" style="text;strokeColor=none;fillColor=none;align=left;verticalAlign=top;spacingLeft=4;spacingRight=4;overflow=hidden;rotatable=0;points=[[0,0.5],[1,0.5]];portConstraint=eastwest;whiteSpace=wrap;html=1;" vertex="1" parent="9k5Hwaq2Z3CcMoTksa47-80">
          <mxGeometry y="78" width="140" height="26" as="geometry" />
        </mxCell>
        <mxCell id="9k5Hwaq2Z3CcMoTksa47-90" value="Flight Data" style="swimlane;fontStyle=0;childLayout=stackLayout;horizontal=1;startSize=26;fillColor=#f8cecc;horizontalStack=0;resizeParent=1;resizeParentMax=0;resizeLast=0;collapsible=1;marginBottom=0;whiteSpace=wrap;html=1;rounded=1;gradientColor=#ea6b66;strokeColor=#b85450;" vertex="1" parent="WIyWlLk6GJQsqaUBKTNV-1">
          <mxGeometry x="-690" y="627" width="140" height="104" as="geometry" />
        </mxCell>
        <mxCell id="9k5Hwaq2Z3CcMoTksa47-91" value="+ id" style="text;strokeColor=none;fillColor=none;align=left;verticalAlign=top;spacingLeft=4;spacingRight=4;overflow=hidden;rotatable=0;points=[[0,0.5],[1,0.5]];portConstraint=eastwest;whiteSpace=wrap;html=1;" vertex="1" parent="9k5Hwaq2Z3CcMoTksa47-90">
          <mxGeometry y="26" width="140" height="26" as="geometry" />
        </mxCell>
        <mxCell id="9k5Hwaq2Z3CcMoTksa47-92" value="+ Date" style="text;strokeColor=none;fillColor=none;align=left;verticalAlign=top;spacingLeft=4;spacingRight=4;overflow=hidden;rotatable=0;points=[[0,0.5],[1,0.5]];portConstraint=eastwest;whiteSpace=wrap;html=1;" vertex="1" parent="9k5Hwaq2Z3CcMoTksa47-90">
          <mxGeometry y="52" width="140" height="26" as="geometry" />
        </mxCell>
        <mxCell id="9k5Hwaq2Z3CcMoTksa47-93" value="+ field: type" style="text;strokeColor=none;fillColor=none;align=left;verticalAlign=top;spacingLeft=4;spacingRight=4;overflow=hidden;rotatable=0;points=[[0,0.5],[1,0.5]];portConstraint=eastwest;whiteSpace=wrap;html=1;" vertex="1" parent="9k5Hwaq2Z3CcMoTksa47-90">
          <mxGeometry y="78" width="140" height="26" as="geometry" />
        </mxCell>
        <mxCell id="9k5Hwaq2Z3CcMoTksa47-99" value="" style="endArrow=none;html=1;rounded=1;exitX=1.033;exitY=0.592;exitDx=0;exitDy=0;exitPerimeter=0;curved=0;" edge="1" parent="WIyWlLk6GJQsqaUBKTNV-1" source="QMsvHpXPwVjZWoKo-MYo-527">
          <mxGeometry relative="1" as="geometry">
            <mxPoint x="-800" y="690" as="sourcePoint" />
            <mxPoint x="-640" y="630" as="targetPoint" />
            <Array as="points">
              <mxPoint x="-640" y="533" />
            </Array>
          </mxGeometry>
        </mxCell>
        <mxCell id="9k5Hwaq2Z3CcMoTksa47-103" value="1" style="text;strokeColor=none;fillColor=none;spacingLeft=4;spacingRight=4;overflow=hidden;rotatable=0;points=[[0,0.5],[1,0.5]];portConstraint=eastwest;fontSize=12;whiteSpace=wrap;html=1;" vertex="1" parent="WIyWlLk6GJQsqaUBKTNV-1">
          <mxGeometry x="-670" y="605" width="40" height="30" as="geometry" />
        </mxCell>
        <mxCell id="9k5Hwaq2Z3CcMoTksa47-104" value="1" style="text;strokeColor=none;fillColor=none;spacingLeft=4;spacingRight=4;overflow=hidden;rotatable=0;points=[[0,0.5],[1,0.5]];portConstraint=eastwest;fontSize=12;whiteSpace=wrap;html=1;" vertex="1" parent="WIyWlLk6GJQsqaUBKTNV-1">
          <mxGeometry x="-806" y="504" width="40" height="30" as="geometry" />
        </mxCell>
        <mxCell id="9k5Hwaq2Z3CcMoTksa47-107" value="" style="endArrow=none;html=1;rounded=0;entryX=0.63;entryY=0.01;entryDx=0;entryDy=0;entryPerimeter=0;exitX=0.353;exitY=1.016;exitDx=0;exitDy=0;exitPerimeter=0;" edge="1" parent="WIyWlLk6GJQsqaUBKTNV-1" source="9k5Hwaq2Z3CcMoTksa47-93" target="9k5Hwaq2Z3CcMoTksa47-76">
          <mxGeometry relative="1" as="geometry">
            <mxPoint x="-800" y="800" as="sourcePoint" />
            <mxPoint x="-640" y="800" as="targetPoint" />
          </mxGeometry>
        </mxCell>
        <mxCell id="9k5Hwaq2Z3CcMoTksa47-108" value="" style="endArrow=none;html=1;rounded=0;entryX=0.025;entryY=0.183;entryDx=0;entryDy=0;entryPerimeter=0;" edge="1" parent="WIyWlLk6GJQsqaUBKTNV-1" target="9k5Hwaq2Z3CcMoTksa47-70">
          <mxGeometry relative="1" as="geometry">
            <mxPoint x="-589" y="839" as="sourcePoint" />
            <mxPoint x="-849" y="825" as="targetPoint" />
          </mxGeometry>
        </mxCell>
        <mxCell id="9k5Hwaq2Z3CcMoTksa47-109" value="1" style="text;strokeColor=none;fillColor=none;spacingLeft=4;spacingRight=4;overflow=hidden;rotatable=0;points=[[0,0.5],[1,0.5]];portConstraint=eastwest;fontSize=12;whiteSpace=wrap;html=1;" vertex="1" parent="WIyWlLk6GJQsqaUBKTNV-1">
          <mxGeometry x="-665.5" y="731" width="40" height="30" as="geometry" />
        </mxCell>
        <mxCell id="9k5Hwaq2Z3CcMoTksa47-110" value="1..*" style="text;strokeColor=none;fillColor=none;spacingLeft=4;spacingRight=4;overflow=hidden;rotatable=0;points=[[0,0.5],[1,0.5]];portConstraint=eastwest;fontSize=12;whiteSpace=wrap;html=1;" vertex="1" parent="WIyWlLk6GJQsqaUBKTNV-1">
          <mxGeometry x="-669" y="761" width="40" height="30" as="geometry" />
        </mxCell>
        <mxCell id="9k5Hwaq2Z3CcMoTksa47-111" value="3..*" style="text;strokeColor=none;fillColor=none;spacingLeft=4;spacingRight=4;overflow=hidden;rotatable=0;points=[[0,0.5],[1,0.5]];portConstraint=eastwest;fontSize=12;whiteSpace=wrap;html=1;" vertex="1" parent="WIyWlLk6GJQsqaUBKTNV-1">
          <mxGeometry x="-592" y="811" width="40" height="30" as="geometry" />
        </mxCell>
        <mxCell id="9k5Hwaq2Z3CcMoTksa47-112" value="1" style="text;strokeColor=none;fillColor=none;spacingLeft=4;spacingRight=4;overflow=hidden;rotatable=0;points=[[0,0.5],[1,0.5]];portConstraint=eastwest;fontSize=12;whiteSpace=wrap;html=1;" vertex="1" parent="WIyWlLk6GJQsqaUBKTNV-1">
          <mxGeometry x="-552" y="815" width="40" height="30" as="geometry" />
        </mxCell>
        <mxCell id="9k5Hwaq2Z3CcMoTksa47-114" value="Scale" style="swimlane;fontStyle=0;childLayout=stackLayout;horizontal=1;startSize=26;fillColor=#f8cecc;horizontalStack=0;resizeParent=1;resizeParentMax=0;resizeLast=0;collapsible=1;marginBottom=0;whiteSpace=wrap;html=1;rounded=1;gradientColor=#ea6b66;strokeColor=#b85450;" vertex="1" parent="WIyWlLk6GJQsqaUBKTNV-1">
          <mxGeometry x="-530" y="435" width="140" height="104" as="geometry" />
        </mxCell>
        <mxCell id="9k5Hwaq2Z3CcMoTksa47-115" value="+ id" style="text;strokeColor=none;fillColor=none;align=left;verticalAlign=top;spacingLeft=4;spacingRight=4;overflow=hidden;rotatable=0;points=[[0,0.5],[1,0.5]];portConstraint=eastwest;whiteSpace=wrap;html=1;" vertex="1" parent="9k5Hwaq2Z3CcMoTksa47-114">
          <mxGeometry y="26" width="140" height="26" as="geometry" />
        </mxCell>
        <mxCell id="9k5Hwaq2Z3CcMoTksa47-116" value="+ Date" style="text;strokeColor=none;fillColor=none;align=left;verticalAlign=top;spacingLeft=4;spacingRight=4;overflow=hidden;rotatable=0;points=[[0,0.5],[1,0.5]];portConstraint=eastwest;whiteSpace=wrap;html=1;" vertex="1" parent="9k5Hwaq2Z3CcMoTksa47-114">
          <mxGeometry y="52" width="140" height="26" as="geometry" />
        </mxCell>
        <mxCell id="9k5Hwaq2Z3CcMoTksa47-117" value="+ Time" style="text;strokeColor=none;fillColor=none;align=left;verticalAlign=top;spacingLeft=4;spacingRight=4;overflow=hidden;rotatable=0;points=[[0,0.5],[1,0.5]];portConstraint=eastwest;whiteSpace=wrap;html=1;" vertex="1" parent="9k5Hwaq2Z3CcMoTksa47-114">
          <mxGeometry y="78" width="140" height="26" as="geometry" />
        </mxCell>
        <mxCell id="9k5Hwaq2Z3CcMoTksa47-118" value="" style="endArrow=none;html=1;rounded=0;entryX=0;entryY=0.5;entryDx=0;entryDy=0;exitX=0.75;exitY=0;exitDx=0;exitDy=0;" edge="1" parent="WIyWlLk6GJQsqaUBKTNV-1" source="9k5Hwaq2Z3CcMoTksa47-90" target="9k5Hwaq2Z3CcMoTksa47-116">
          <mxGeometry relative="1" as="geometry">
            <mxPoint x="-609" y="650" as="sourcePoint" />
            <mxPoint x="-450" y="540" as="targetPoint" />
          </mxGeometry>
        </mxCell>
        <mxCell id="9k5Hwaq2Z3CcMoTksa47-120" value="" style="endArrow=none;html=1;rounded=0;exitX=1;exitY=0.5;exitDx=0;exitDy=0;" edge="1" parent="WIyWlLk6GJQsqaUBKTNV-1" source="9k5Hwaq2Z3CcMoTksa47-115" target="9k5Hwaq2Z3CcMoTksa47-83">
          <mxGeometry relative="1" as="geometry">
            <mxPoint x="-460" y="434" as="sourcePoint" />
            <mxPoint x="-530" y="524" as="targetPoint" />
          </mxGeometry>
        </mxCell>
        <mxCell id="9k5Hwaq2Z3CcMoTksa47-121" value="1..*" style="text;strokeColor=none;fillColor=none;spacingLeft=4;spacingRight=4;overflow=hidden;rotatable=0;points=[[0,0.5],[1,0.5]];portConstraint=eastwest;fontSize=12;whiteSpace=wrap;html=1;" vertex="1" parent="WIyWlLk6GJQsqaUBKTNV-1">
          <mxGeometry x="-570" y="480" width="30" height="30" as="geometry" />
        </mxCell>
        <mxCell id="9k5Hwaq2Z3CcMoTksa47-122" value="" style="endArrow=none;html=1;rounded=1;entryX=0.5;entryY=0;entryDx=0;entryDy=0;exitX=1;exitY=0.5;exitDx=0;exitDy=0;curved=0;" edge="1" parent="WIyWlLk6GJQsqaUBKTNV-1" source="QMsvHpXPwVjZWoKo-MYo-525" target="9k5Hwaq2Z3CcMoTksa47-114">
          <mxGeometry relative="1" as="geometry">
            <mxPoint x="-810" y="170" as="sourcePoint" />
            <mxPoint x="-340" y="342.38" as="targetPoint" />
            <Array as="points">
              <mxPoint x="-460" y="125" />
            </Array>
          </mxGeometry>
        </mxCell>
        <mxCell id="9k5Hwaq2Z3CcMoTksa47-123" value="" style="endArrow=none;html=1;rounded=0;exitX=0.658;exitY=0.049;exitDx=0;exitDy=0;exitPerimeter=0;entryX=0.614;entryY=0.994;entryDx=0;entryDy=0;entryPerimeter=0;" edge="1" parent="WIyWlLk6GJQsqaUBKTNV-1" source="QMsvHpXPwVjZWoKo-MYo-526" target="QMsvHpXPwVjZWoKo-MYo-525">
          <mxGeometry relative="1" as="geometry">
            <mxPoint x="-806" y="208" as="sourcePoint" />
            <mxPoint x="-646" y="208" as="targetPoint" />
          </mxGeometry>
        </mxCell>
        <mxCell id="9k5Hwaq2Z3CcMoTksa47-124" value="" style="endArrow=none;html=1;rounded=0;entryX=0.298;entryY=0.994;entryDx=0;entryDy=0;entryPerimeter=0;" edge="1" parent="WIyWlLk6GJQsqaUBKTNV-1" target="QMsvHpXPwVjZWoKo-MYo-525">
          <mxGeometry relative="1" as="geometry">
            <mxPoint x="-920" y="290" as="sourcePoint" />
            <mxPoint x="-779" y="220" as="targetPoint" />
          </mxGeometry>
        </mxCell>
        <mxCell id="9k5Hwaq2Z3CcMoTksa47-125" value="1" style="text;strokeColor=none;fillColor=none;spacingLeft=4;spacingRight=4;overflow=hidden;rotatable=0;points=[[0,0.5],[1,0.5]];portConstraint=eastwest;fontSize=12;whiteSpace=wrap;html=1;" vertex="1" parent="WIyWlLk6GJQsqaUBKTNV-1">
          <mxGeometry x="-600" y="605" width="40" height="30" as="geometry" />
        </mxCell>
        <mxCell id="9k5Hwaq2Z3CcMoTksa47-126" value="1..*" style="text;strokeColor=none;fillColor=none;spacingLeft=4;spacingRight=4;overflow=hidden;rotatable=0;points=[[0,0.5],[1,0.5]];portConstraint=eastwest;fontSize=12;whiteSpace=wrap;html=1;" vertex="1" parent="WIyWlLk6GJQsqaUBKTNV-1">
          <mxGeometry x="-390" y="441.75" width="40" height="30" as="geometry" />
        </mxCell>
        <mxCell id="9k5Hwaq2Z3CcMoTksa47-127" value="1" style="text;strokeColor=none;fillColor=none;spacingLeft=4;spacingRight=4;overflow=hidden;rotatable=0;points=[[0,0.5],[1,0.5]];portConstraint=eastwest;fontSize=12;whiteSpace=wrap;html=1;" vertex="1" parent="WIyWlLk6GJQsqaUBKTNV-1">
          <mxGeometry x="-330" y="441.75" width="40" height="30" as="geometry" />
        </mxCell>
        <mxCell id="9k5Hwaq2Z3CcMoTksa47-128" value="1..*" style="text;strokeColor=none;fillColor=none;spacingLeft=4;spacingRight=4;overflow=hidden;rotatable=0;points=[[0,0.5],[1,0.5]];portConstraint=eastwest;fontSize=12;whiteSpace=wrap;html=1;" vertex="1" parent="WIyWlLk6GJQsqaUBKTNV-1">
          <mxGeometry x="-500" y="396.13" width="40" height="30" as="geometry" />
        </mxCell>
        <mxCell id="9k5Hwaq2Z3CcMoTksa47-129" value="1" style="text;strokeColor=none;fillColor=none;spacingLeft=4;spacingRight=4;overflow=hidden;rotatable=0;points=[[0,0.5],[1,0.5]];portConstraint=eastwest;fontSize=12;whiteSpace=wrap;html=1;" vertex="1" parent="WIyWlLk6GJQsqaUBKTNV-1">
          <mxGeometry x="-800" y="88" width="40" height="30" as="geometry" />
        </mxCell>
        <mxCell id="9k5Hwaq2Z3CcMoTksa47-131" value="" style="endArrow=none;html=1;rounded=0;exitX=0.581;exitY=1;exitDx=0;exitDy=0;exitPerimeter=0;" edge="1" parent="WIyWlLk6GJQsqaUBKTNV-1">
          <mxGeometry relative="1" as="geometry">
            <mxPoint x="-1800.5" y="598" as="sourcePoint" />
            <mxPoint x="-1800" y="660" as="targetPoint" />
          </mxGeometry>
        </mxCell>
        <mxCell id="9k5Hwaq2Z3CcMoTksa47-132" value="1..*" style="text;strokeColor=none;fillColor=none;spacingLeft=4;spacingRight=4;overflow=hidden;rotatable=0;points=[[0,0.5],[1,0.5]];portConstraint=eastwest;fontSize=12;whiteSpace=wrap;html=1;" vertex="1" parent="WIyWlLk6GJQsqaUBKTNV-1">
          <mxGeometry x="-1695" y="442.13" width="40" height="30" as="geometry" />
        </mxCell>
        <mxCell id="9k5Hwaq2Z3CcMoTksa47-133" value="1" style="text;strokeColor=none;fillColor=none;spacingLeft=4;spacingRight=4;overflow=hidden;rotatable=0;points=[[0,0.5],[1,0.5]];portConstraint=eastwest;fontSize=12;whiteSpace=wrap;html=1;" vertex="1" parent="WIyWlLk6GJQsqaUBKTNV-1">
          <mxGeometry x="-1820" y="478" width="40" height="30" as="geometry" />
        </mxCell>
        <mxCell id="9k5Hwaq2Z3CcMoTksa47-134" value="" style="endArrow=none;html=1;rounded=0;exitX=0.551;exitY=0.988;exitDx=0;exitDy=0;exitPerimeter=0;entryX=0.551;entryY=0.018;entryDx=0;entryDy=0;entryPerimeter=0;" edge="1" parent="WIyWlLk6GJQsqaUBKTNV-1" source="IgqxZhTUIi47PmuO_gBq-86" target="IgqxZhTUIi47PmuO_gBq-82">
          <mxGeometry relative="1" as="geometry">
            <mxPoint x="-1200" y="430" as="sourcePoint" />
            <mxPoint x="-1040" y="430" as="targetPoint" />
          </mxGeometry>
        </mxCell>
        <mxCell id="9k5Hwaq2Z3CcMoTksa47-136" value="" style="endArrow=none;html=1;rounded=0;entryX=0.01;entryY=0.19;entryDx=0;entryDy=0;entryPerimeter=0;exitX=0.985;exitY=0.599;exitDx=0;exitDy=0;exitPerimeter=0;" edge="1" parent="WIyWlLk6GJQsqaUBKTNV-1" source="IgqxZhTUIi47PmuO_gBq-95" target="9k5Hwaq2Z3CcMoTksa47-55">
          <mxGeometry relative="1" as="geometry">
            <mxPoint x="-490" y="750" as="sourcePoint" />
            <mxPoint x="-330" y="750" as="targetPoint" />
          </mxGeometry>
        </mxCell>
        <mxCell id="9k5Hwaq2Z3CcMoTksa47-137" value="1" style="text;strokeColor=none;fillColor=none;spacingLeft=4;spacingRight=4;overflow=hidden;rotatable=0;points=[[0,0.5],[1,0.5]];portConstraint=eastwest;fontSize=12;whiteSpace=wrap;html=1;" vertex="1" parent="WIyWlLk6GJQsqaUBKTNV-1">
          <mxGeometry x="-303" y="630" width="40" height="30" as="geometry" />
        </mxCell>
        <mxCell id="9k5Hwaq2Z3CcMoTksa47-138" value="0..1" style="text;strokeColor=none;fillColor=none;spacingLeft=4;spacingRight=4;overflow=hidden;rotatable=0;points=[[0,0.5],[1,0.5]];portConstraint=eastwest;fontSize=12;whiteSpace=wrap;html=1;" vertex="1" parent="WIyWlLk6GJQsqaUBKTNV-1">
          <mxGeometry x="-250" y="628" width="40" height="30" as="geometry" />
        </mxCell>
      </root>
    </mxGraphModel>
  </diagram>
</mxfile>
